<svg width="88" height="88" viewBox="0 0 88 88" fill="none" xmlns="http://www.w3.org/2000/svg">
<circle cx="43.9998" cy="43.9998" r="43.9998" fill="#191919"/>
<path d="M54.8324 22.3334H33.1658C27.1827 22.3334 22.3325 27.1836 22.3325 33.1667V54.8333C22.3325 60.8163 27.1827 65.6665 33.1658 65.6665H54.8324C60.8155 65.6665 65.6657 60.8163 65.6657 54.8333V33.1667C65.6657 27.1836 60.8155 22.3334 54.8324 22.3334Z" stroke="white" stroke-width="2" stroke-linecap="round" stroke-linejoin="round"/>
<path d="M52.6658 42.635C52.9332 44.4382 52.6252 46.2798 51.7856 47.8979C50.946 49.5159 49.6176 50.828 47.9893 51.6476C46.3611 52.4672 44.5158 52.7524 42.716 52.4628C40.9163 52.1732 39.2537 51.3235 37.9647 50.0345C36.6757 48.7455 35.826 47.0829 35.5363 45.2831C35.2467 43.4834 35.532 41.6381 36.3516 40.0098C37.1711 38.3815 38.4833 37.0531 40.1013 36.2136C41.7194 35.374 43.561 35.066 45.3642 35.3334C47.2035 35.6061 48.9063 36.4632 50.2211 37.778C51.536 39.0929 52.3931 40.7957 52.6658 42.635Z" stroke="white" stroke-width="2" stroke-linecap="round" stroke-linejoin="round"/>
<path d="M55.916 32.0834H55.936" stroke="white" stroke-width="2" stroke-linecap="round" stroke-linejoin="round"/>
</svg>
