<svg width="88" height="88" viewBox="0 0 88 88" fill="none" xmlns="http://www.w3.org/2000/svg">
<circle cx="43.9998" cy="43.9998" r="43.9998" fill="#D89441"/>
<path d="M67.8335 24.5003C65.7586 25.9638 63.4614 27.0832 61.0302 27.8153C59.7253 26.3149 57.9911 25.2515 56.0621 24.7688C54.1331 24.2862 52.1024 24.4076 50.2447 25.1166C48.387 25.8257 46.7918 27.0882 45.675 28.7333C44.5582 30.3785 43.9736 32.327 44.0002 34.3153V36.4819C40.1926 36.5807 36.4197 35.7362 33.0175 34.0237C29.6152 32.3113 26.6893 29.784 24.5003 26.667C24.5003 26.667 15.8337 46.1669 35.3336 54.8335C30.8714 57.8624 25.5558 59.3812 20.167 59.1668C39.6669 70.0001 63.5002 59.1668 63.5002 34.2503C63.4982 33.6468 63.4401 33.0447 63.3268 32.4519C65.5381 30.2712 67.0986 27.5178 67.8335 24.5003V24.5003Z" stroke="white" stroke-width="2" stroke-linecap="round" stroke-linejoin="round"/>
</svg>
