<svg width="629" height="348" viewBox="0 0 629 348" fill="none" xmlns="http://www.w3.org/2000/svg">
<path d="M595.773 347.861V234.006L549.15 229.188L524.731 230.684V145.788L479.538 138.101L471.811 138.953V132.448C472.458 132.171 473.006 131.706 473.382 131.113C473.759 130.52 473.947 129.827 473.922 129.126C473.965 128.509 473.795 127.896 473.44 127.389C473.084 126.882 472.564 126.513 471.968 126.343H471.567H471.392H470.956C470.196 126.537 469.53 126.993 469.073 127.629C468.617 128.265 468.401 129.042 468.462 129.822C468.396 130.456 468.56 131.093 468.925 131.616C469.29 132.14 469.831 132.515 470.451 132.674H470.852H471.218V139.023L463.352 139.875V135.335C463.75 135.119 464.081 134.796 464.306 134.403C464.531 134.009 464.641 133.561 464.625 133.109C464.655 132.692 464.549 132.277 464.322 131.926C464.096 131.575 463.761 131.307 463.369 131.161V129.422C464.186 129.075 464.878 128.488 465.352 127.739C465.826 126.99 466.059 126.115 466.02 125.23C466.054 124.46 465.831 123.701 465.386 123.072C464.941 122.442 464.299 121.978 463.561 121.751H463.456H462.95H462.724H462.218C461.268 121.999 460.434 122.568 459.858 123.361C459.282 124.154 459.001 125.122 459.061 126.1C458.994 126.904 459.21 127.706 459.671 128.37C460.133 129.033 460.811 129.515 461.59 129.735H462.096H462.636V131.196H462.375C461.853 131.331 461.394 131.643 461.077 132.077C460.759 132.511 460.601 133.042 460.631 133.579C460.579 134.024 460.693 134.473 460.95 134.841C461.207 135.209 461.589 135.472 462.026 135.579H462.305H462.636V139.91L451.16 141.162V81.7473L431.555 77.6425L428.764 78.0425L428.38 77.9382V75.764C428.391 75.736 428.391 75.7051 428.38 75.6771L425.659 75.1031V68.1459L411.06 64.9804V60.2668L400.368 57.884L389.676 59.6233V60.1625L388.716 59.9538V24.0719H388.629H387.269V59.5885L374.745 56.8578L358.036 59.5711L340.803 55.9012V37.5341L318.878 32.5597V15.6537H317.866V15.7407V32.2988L317.169 32.1249L314.012 32.6989V0.0869141H312.477C312.477 0.0869141 312.477 0.0869141 312.477 0.173879V32.925L290.674 36.6993V35.2383L280.505 32.9946L266.865 35.4296V41.0475L251.673 43.7782V128.708L217.347 123.491L213.859 123.978V117.89C214.455 117.533 214.943 117.02 215.269 116.407C215.595 115.794 215.746 115.104 215.707 114.411C215.786 113.791 215.657 113.162 215.342 112.622C215.027 112.081 214.543 111.659 213.963 111.42H213.597H213.266H213.021C212.272 111.672 211.63 112.171 211.202 112.835C210.774 113.498 210.586 114.287 210.667 115.072C210.667 116.69 211.504 118.029 212.55 118.151H212.917H213.353V124.204L205.643 125.265V120.934C206.009 120.665 206.303 120.309 206.497 119.9C206.692 119.49 206.782 119.039 206.76 118.586C206.8 118.172 206.715 117.755 206.516 117.389C206.317 117.024 206.013 116.726 205.643 116.533V114.898C206.475 114.462 207.162 113.794 207.621 112.976C208.079 112.158 208.289 111.224 208.225 110.289C208.312 109.482 208.13 108.668 207.708 107.973C207.285 107.279 206.646 106.742 205.888 106.445H205.417H204.667C203.715 106.791 202.905 107.44 202.362 108.293C201.819 109.145 201.575 110.153 201.667 111.159C201.667 113.246 202.73 114.951 204.074 115.107H204.544H205.085V116.429H204.858C204.337 116.616 203.893 116.97 203.597 117.436C203.3 117.902 203.167 118.453 203.219 119.003C203.219 120.134 203.794 121.073 204.527 121.16H204.789H205.085V125.23L189.788 127.334V147.58L184.992 146.936L180.875 147.458V147.841L175.957 148.45V142.432C176.538 142.066 177.008 141.548 177.315 140.935C177.623 140.322 177.756 139.636 177.701 138.953C177.766 138.343 177.631 137.729 177.317 137.202C177.002 136.675 176.525 136.264 175.957 136.031H175.608H174.422C173.716 136.288 173.112 136.766 172.701 137.392C172.289 138.019 172.091 138.762 172.137 139.51C172.137 141.092 172.957 142.379 173.881 142.501H174.23H174.683V148.45L157.887 150.519V145.667C158.235 145.545 158.392 145.406 158.41 145.249V126.83C158.41 126.482 157.573 126.186 155.933 125.926C154.086 125.643 152.22 125.497 150.352 125.491C146.741 125.491 143.671 125.839 143.096 126.43C143.059 126.455 143.028 126.489 143.007 126.528C142.986 126.568 142.974 126.611 142.974 126.656V145.075C142.974 145.301 143.305 145.493 143.968 145.667V152.398L130.555 154.137L129.072 153.894L125.252 154.363V224.37L95.4087 222.057L37.7274 226.857H37.6402V347.861H0V348.017H629V347.861H595.773ZM95.3215 347.861H37.7623V227.031L95.3215 222.231V347.861ZM125.183 347.861H95.5308V222.231L125.183 224.527V347.861ZM129.072 347.861H125.357V154.52L129.072 154.068V347.861ZM174.422 142.362C174.324 142.38 174.223 142.38 174.125 142.362H173.864C173.347 142.113 172.922 141.709 172.647 141.207C172.372 140.705 172.26 140.13 172.329 139.562C172.246 138.829 172.41 138.089 172.795 137.459C173.18 136.829 173.765 136.345 174.457 136.083H174.823H174.98C175.504 136.313 175.94 136.703 176.225 137.198C176.511 137.692 176.631 138.264 176.567 138.831C176.665 139.575 176.505 140.33 176.115 140.972C175.726 141.613 175.128 142.104 174.422 142.362ZM174.631 142.484C175.293 142.183 175.849 141.691 176.226 141.07C176.603 140.449 176.782 139.73 176.742 139.005C176.764 138.516 176.676 138.029 176.486 137.577C176.296 137.126 176.008 136.723 175.643 136.396C176.106 136.665 176.483 137.059 176.73 137.533C176.978 138.008 177.084 138.542 177.038 139.075C177.117 139.81 176.949 140.55 176.561 141.179C176.173 141.809 175.586 142.292 174.893 142.553L174.631 142.484ZM175.259 142.484V148.502H174.945V142.623L175.259 142.484ZM143.183 126.656C143.171 126.622 143.171 126.585 143.183 126.552C143.671 126.082 146.462 125.613 150.334 125.665C152.191 125.674 154.044 125.813 155.881 126.082C157.73 126.378 158.218 126.691 158.218 126.83V145.006C157.433 144.414 153.98 144.119 150.735 144.084C148.176 143.868 145.598 144.122 143.131 144.832L143.183 126.656ZM143.183 145.075C143.654 144.606 146.898 144.275 150.718 144.31C155.602 144.31 158.201 144.936 158.218 145.319C158.218 145.319 158.218 145.458 157.869 145.562V145.232H157.172L156.788 145.823C155.505 146.005 154.211 146.104 152.916 146.119L151.991 144.762V144.362H151.52V146.102H150.945C149.09 146.092 147.238 145.97 145.398 145.736L144.77 145.301H144.09V145.441C143.27 145.301 143.183 145.128 143.183 145.075ZM157.765 145.301V150.676H157.433V145.301H157.765ZM154.817 149.998L155.253 150.624L154.363 150.728L154.817 149.998ZM154.154 150.745H153.77L154.538 149.58L154.712 149.824L154.154 150.745ZM151.904 145.528V145.041L155.689 150.606H155.445L151.904 145.528ZM152.113 146.119H151.904V145.806L152.113 146.119ZM152.933 146.258C154.152 146.242 155.369 146.155 156.578 145.997L154.834 148.919L152.933 146.258ZM154.852 149.076L157.189 145.336V145.823L154.956 149.302L154.852 149.076ZM151.747 144.519V151.476H151.433V144.519H151.747ZM151.276 146.258V151.476L150.683 151.563V146.241H151.276V146.258ZM150.526 146.258V151.615H150.195V146.223L150.526 146.258ZM147.404 149.737L147.543 149.928L145.642 152.206H145.276L147.404 149.737ZM145.049 152.293H144.7V146.102L147.299 149.58L145.049 152.293ZM147.648 150.067L148.939 151.806L145.904 152.189L147.648 150.067ZM144.77 145.771V145.441L149.392 151.737H149.148L144.77 145.771ZM148.014 149.58L150.003 147.197V151.65H149.549L148.014 149.58ZM147.91 149.58L147.753 149.354L150.003 146.554V146.936L147.91 149.58ZM147.648 149.215L145.276 145.98C146.843 146.195 148.421 146.311 150.003 146.328L147.648 149.215ZM144.439 145.528V145.632V145.528ZM144.439 145.91V152.433H144.107V145.475L144.439 145.91ZM130.485 324.641V347.861H129.159V154.068L130.502 154.241V164.469L131.357 164.625V179.479L130.485 179.583V193.219H130.59L131.357 193.376V208.264L130.555 208.351V222.266L131.34 222.37V237.293H130.52V250.825L131.357 250.964V265.87H130.555V279.541L131.392 279.697V294.655H130.555V308.379H131.444V323.493H130.607L130.502 324.554L130.485 324.641ZM131.375 222.613L140.985 221.831L131.462 222.613H131.375ZM131.252 251.416L152.183 250.112L131.497 251.469L131.252 251.416ZM152.183 347.93H130.677V324.624L152.235 324.293L152.183 347.93ZM152.183 323.737H150.299V315.284H152.235L152.183 323.737ZM152.183 315.04L131.88 315.492V315.11L152.183 314.64V315.04ZM150.09 315.249V323.719H150.003V315.249H150.09ZM149.689 315.249V323.719H149.567V315.266L149.689 315.249ZM149.41 315.249V323.702H145.764V315.266L149.41 315.249ZM145.59 315.249V323.684H145.381V315.249H145.59ZM145.224 315.249V323.684H145.084V315.336L145.224 315.249ZM144.91 315.249V323.667H141.264V315.266L144.91 315.249ZM141.107 315.249V323.65H140.915V315.249H141.107ZM140.758 315.249V323.667H140.601V315.249H140.758ZM140.444 315.249V323.65H136.834V315.51L140.444 315.249ZM136.677 315.249V323.615H136.485V315.231L136.677 315.249ZM136.311 315.249V323.632H136.154V315.249H136.311ZM135.997 315.249V323.632H132.282V315.266L135.997 315.249ZM132.107 315.353V323.702H131.88V315.353H132.107ZM131.88 314.64V309.631H132.107V314.64H131.88ZM132.282 314.64V309.648L136.014 309.561V314.814L132.282 314.64ZM136.223 314.814V309.805H136.363V314.814H136.223ZM136.537 314.814V309.822H136.712V314.814H136.537ZM136.869 314.814V309.805L140.479 309.718V314.727L136.869 314.814ZM140.654 314.727V309.718H140.793V314.727H140.654ZM140.968 314.727V309.735H141.16V314.727H140.968ZM141.317 314.727V309.718L144.962 309.631V314.64L141.317 314.727ZM145.136 314.64V309.596H145.258V314.605L145.136 314.64ZM145.433 314.64V309.596H145.642V314.605L145.433 314.64ZM145.817 314.64V309.596L149.462 309.509V314.518L145.817 314.64ZM149.636 314.536V309.544H149.741V314.536H149.636ZM149.916 314.536V309.527H150.142V314.536H149.916ZM152.235 314.536H150.299V309.527H152.235V314.536ZM152.235 309.318L131.845 309.805V324.032L152.235 323.684V323.998L131.601 324.328V309.196L152.235 308.657V309.318ZM152.235 308.674L130.677 309.231V295.682L152.235 294.934V308.674ZM152.235 294.377H150.299V285.959H152.235V294.377ZM152.235 285.785L131.933 286.55V286.202L152.235 285.246V285.785ZM150.142 286.046V294.447H150.003V286.046H150.142ZM149.759 286.046V294.464H149.636V286.063L149.759 286.046ZM149.462 286.046V294.447L145.817 294.569V286.185L149.462 286.046ZM145.642 286.185V294.586H145.433V286.202L145.642 286.185ZM145.276 286.185V294.569H145.154V286.168L145.276 286.185ZM144.979 286.185V294.569L141.334 294.69V286.307L144.979 286.185ZM141.177 286.324V294.708H140.985V286.324H141.177ZM140.811 286.324V294.69H140.671V286.307L140.811 286.324ZM140.514 286.324V294.708L136.904 294.829V286.463L140.514 286.324ZM136.729 286.463V294.829H136.537V286.463H136.729ZM136.38 286.463V294.829H136.223V286.463H136.38ZM136.049 286.463V294.829L132.299 294.951V286.603L136.049 286.463ZM132.142 286.603V294.951H131.933V286.585L132.142 286.603ZM131.933 285.942V280.88H132.142V285.924L131.933 285.942ZM132.299 285.942V280.88L136.049 280.706V285.785L132.299 285.942ZM136.206 285.768V280.706H136.38V285.768H136.206ZM136.537 285.768V280.724H136.729V285.785L136.537 285.768ZM136.886 285.768V280.689L140.514 280.532V285.611L136.886 285.768ZM140.671 285.594V280.515H140.793V285.594H140.671ZM140.968 285.594V280.498H141.177V285.576L140.968 285.594ZM141.334 285.594V280.498L144.979 280.341V285.437L141.334 285.594ZM145.154 285.42V280.324H145.258V285.42H145.154ZM145.433 285.42V280.324H145.642V285.42H145.433ZM145.817 285.42V280.324L149.48 280.15V285.246L145.817 285.42ZM149.636 285.246V280.15H149.759V285.246H149.636ZM149.933 285.246V280.132H150.107V285.246H149.933ZM152.235 285.142H150.264V280.028H152.235V285.142ZM152.235 279.924L131.845 280.863V295.108L152.218 294.395V294.603L131.584 295.334V280.376L152.218 279.437L152.235 279.924ZM152.235 279.454L131.514 280.393H131.322L152.253 279.454H152.235ZM152.235 279.263L130.694 280.219V266.635L152.235 265.505V279.263ZM152.235 265.053L150.299 265.157V256.773L152.235 256.669V265.053ZM152.235 256.495L131.933 257.66V257.243L152.235 256.06V256.495ZM150.142 256.791V265.174H150.003V256.773L150.142 256.791ZM149.759 256.791V265.174H149.619V256.721L149.759 256.791ZM149.462 256.791V265.174L145.817 265.383V257L149.462 256.791ZM145.642 257V265.383H145.433V257H145.642ZM145.258 257V265.366H145.119V256.982L145.258 257ZM144.945 257V265.366L141.334 265.574V257.191L144.945 257ZM141.16 257.208V265.574H140.985V257.208H141.16ZM140.811 257.208V265.574H140.671V257.243L140.811 257.208ZM140.514 257.208V265.574L136.904 265.766V257.417L140.514 257.208ZM136.747 257.417V265.783H136.537V257.417H136.747ZM136.38 257.417V265.766H136.223V257.417H136.38ZM136.049 257.417V265.766L132.316 265.974V257.626L136.049 257.417ZM132.159 257.626V266.113H131.933V257.765L132.159 257.626ZM131.933 256.895V252.025H132.159V256.982L131.933 256.895ZM132.316 256.895V251.921L136.049 251.695V256.669L132.316 256.895ZM136.206 256.669V251.677H136.38V256.669H136.206ZM136.537 256.669V251.677H136.712V256.669H136.537ZM136.886 256.669V251.677L140.497 251.434V256.46L136.886 256.669ZM140.671 256.443V251.416H140.811V256.443H140.671ZM140.985 256.443V251.416H141.16V256.426L140.985 256.443ZM141.334 256.443V251.416L144.962 251.173V256.234L141.334 256.443ZM145.136 256.217V251.173H145.258V256.234L145.136 256.217ZM145.433 256.217V251.173H145.642V256.234L145.433 256.217ZM145.817 256.217V251.155L149.462 250.929V256.008L145.817 256.217ZM149.619 255.991V250.912H149.776V256.008L149.619 255.991ZM149.933 255.991V250.912H150.107V256.008L149.933 255.991ZM152.235 255.869L150.282 255.973V250.895L152.235 250.755V255.869ZM152.235 250.651L131.845 251.973V266.113L152.235 265V265.192L131.566 266.287V251.399L152.235 250.06V250.651ZM152.235 249.955L130.659 251.312V237.937L152.235 236.389V249.955ZM152.235 235.78L150.299 235.919V227.501L152.235 227.362V235.78ZM152.235 227.205L131.933 228.701V228.301L152.235 226.857V227.205ZM150.125 227.518V235.937H150.003V227.518H150.125ZM149.793 227.518V235.919H149.636V227.501L149.793 227.518ZM149.462 227.518V235.937L145.817 236.197V227.797L149.462 227.518ZM145.642 227.797V236.215H145.433V227.849L145.642 227.797ZM145.258 227.797V236.197H145.136V227.849L145.258 227.797ZM144.962 227.797V236.215L141.282 236.545V228.144L144.962 227.797ZM141.16 228.075V236.545H140.985V228.144L141.16 228.075ZM140.811 228.075V236.545H140.671V228.144L140.811 228.075ZM140.514 228.075V236.545L136.921 236.806V228.405L140.514 228.075ZM136.747 228.353V236.754H136.537V228.353H136.747ZM136.363 228.353V236.737H136.206V228.336L136.363 228.353ZM136.032 228.353V236.754L132.316 237.015V228.631L136.032 228.353ZM132.159 228.649V237.032H131.933V228.649H132.159ZM131.933 227.936V222.961H132.159V227.936H131.933ZM132.316 227.936V222.961L136.066 222.666V227.675L132.316 227.936ZM136.223 227.657V222.648H136.363V227.657H136.223ZM136.537 227.657V222.631H136.747V227.657H136.537ZM136.921 227.657V222.631L140.41 222.335V227.379L136.921 227.657ZM140.654 227.397V222.335H140.811V227.397H140.654ZM140.985 227.397V222.353H141.16V227.414L140.985 227.397ZM141.334 227.397V222.335L144.962 222.04V227.136L141.334 227.397ZM145.136 227.118V222.04H145.258V227.136L145.136 227.118ZM145.433 227.118V222.022H145.642V227.118H145.433ZM145.817 227.118V221.935L149.462 221.657V226.77L145.817 227.118ZM149.619 226.857V221.726H149.776V226.944L149.619 226.857ZM149.933 226.857V221.639H150.125V226.857H149.933ZM152.235 226.701L150.299 226.84V221.587L152.235 221.431V226.701ZM152.235 221.379L131.845 223.014V237.276L152.218 235.797V236.058L131.549 237.554V222.631L152.218 220.892L152.235 221.379ZM152.235 220.787L130.694 222.527V208.716L152.235 206.768V220.787ZM152.235 206.473L150.317 206.647V198.211L152.235 198.02V206.473ZM152.235 197.776L131.95 199.672V199.324L142.101 198.385L149.078 197.724L151.398 197.515H152.044H152.183L152.235 197.776ZM150.142 198.141V206.56H149.933V198.124L150.142 198.141ZM149.759 198.141V206.577H149.619V198.159L149.759 198.141ZM149.445 198.141V206.56L145.799 206.89V198.472L149.445 198.141ZM145.642 198.489V206.977H145.433V198.559L145.642 198.489ZM145.276 198.489V206.977H145.171V198.576L145.276 198.489ZM144.997 198.489V206.977L141.282 207.325V198.924L144.997 198.489ZM141.177 198.837V207.238H140.968V198.837H141.177ZM140.811 198.837V207.238H140.636V198.837H140.811ZM140.479 198.837V207.221L136.904 207.551V199.168L140.479 198.837ZM136.729 199.185V207.569H136.52V199.185H136.729ZM136.346 199.185V207.569H136.223V199.202L136.346 199.185ZM136.066 199.185V207.551L131.95 207.934V199.568L136.066 199.185ZM131.95 198.872V193.828H132.159V198.872H131.95ZM132.316 198.872V193.828L136.066 193.463V198.524L132.316 198.872ZM136.223 198.507V193.445H136.363V198.524L136.223 198.507ZM136.537 198.507V193.428H136.729V198.507H136.537ZM136.904 198.507V193.585L140.479 193.237V198.281L136.904 198.507ZM140.636 198.159V193.063H140.811V198.281L140.636 198.159ZM140.968 198.159V193.063H141.16V198.281L140.968 198.159ZM141.334 198.159V193.063L144.962 192.715V197.828L141.334 198.159ZM145.136 197.811V192.697H145.276V197.811H145.136ZM145.433 197.811V192.593H145.642V197.707L145.433 197.811ZM145.799 197.811V192.593L149.48 192.228V197.446L145.799 197.811ZM149.636 197.446V192.228H149.759V197.446H149.636ZM149.933 197.446V192.228H150.107V197.446H149.933ZM152.235 197.22L150.282 197.411V192.193L152.235 192.002V197.22ZM152.235 191.897L131.863 193.915V194.002V208.264L152.218 206.421V206.542L131.549 208.421V193.532L152.218 191.48L152.235 191.897ZM152.235 191.393L131.497 193.445H131.218L152.148 191.341L152.235 191.393ZM152.235 191.132L130.677 193.289V179.809L152.235 177.409V191.132ZM152.235 177.009L150.282 177.218V168.817L152.235 168.591V177.009ZM152.235 168.312L131.933 170.73V170.347L152.235 168.138V168.312ZM150.107 168.73V177.148H150.003V168.852L150.107 168.73ZM149.759 168.73V177.165H149.602V168.886L149.759 168.73ZM149.445 168.73V177.409L145.782 177.809V169.321L149.445 168.73ZM145.625 169.165V177.583H145.433V169.356L145.625 169.165ZM145.276 169.165V177.583H145.154V169.391L145.276 169.165ZM144.979 169.165V177.583L141.317 177.983V169.826L144.979 169.165ZM141.16 169.6V178H140.968V169.878L141.16 169.6ZM140.793 169.6V177.983H140.636V169.913L140.793 169.6ZM140.462 169.6V177.983L136.973 178.366V170.33L140.462 169.6ZM136.747 170.017V178.383H136.52V170.452L136.747 170.017ZM136.363 170.017V178.383H136.206V170.452L136.363 170.017ZM136.049 170.452V178.818L132.316 179.218V170.869L136.049 170.452ZM132.142 170.904V179.148H131.933V170.8L132.142 170.904ZM131.933 170.191V165.234H132.142V170.26L131.933 170.191ZM132.316 170.191V165.112L136.049 164.66V169.739L132.316 170.191ZM136.206 169.773V164.643H136.363V169.721L136.206 169.773ZM136.52 169.773V164.608H136.747V169.686L136.52 169.773ZM136.904 169.773V164.556L140.497 164.121V169.339L136.904 169.773ZM140.654 169.373V164.155H140.793V169.373H140.654ZM140.968 169.373V164.155H141.177V169.373H140.968ZM141.334 169.373V164.155L144.979 163.721V168.939L141.334 169.373ZM145.154 168.712V163.495H145.258V168.712H145.154ZM145.433 168.712V163.495H145.607V168.712H145.433ZM145.782 168.712V163.495L149.48 163.06V168.278L145.782 168.712ZM149.636 168.295V163.077H149.759V168.295H149.636ZM149.933 168.295V163.077H150.142V168.295H149.933ZM152.235 168.034L150.299 168.243V163.025L152.235 162.799V168.034ZM152.235 162.607L131.828 165.077V179.34L152.218 177.113V177.218L131.584 179.461V164.712L152.218 162.242L152.235 162.607ZM152.235 162.138L131.532 164.556H131.165L152.235 162.068V162.138ZM152.235 161.912L130.677 164.382V154.241L152.235 151.546V161.912ZM152.235 151.111V151.319H151.904V146.102H152.218L154.433 149.302L153.561 150.676L152.305 150.832L152.235 151.041V151.111ZM156.23 347.861H152.41V151.128L156.23 150.676V347.861ZM156.23 150.519H155.811L155.061 149.406L157.259 146.102V150.606L156.317 150.502L156.23 150.519ZM157.66 324.154V347.861H156.317V150.676L157.642 150.832V161.268L158.48 161.425V176.557H157.642V190.471L158.497 190.645V205.794H157.677V219.883H158.497V235.102H157.677V248.86H158.497V264.113H157.695V278.028L158.515 278.167V293.421H157.677V307.439H158.48V322.815H157.695L157.73 324.137L157.66 324.154ZM180.282 347.861H157.887V324.206L180.282 323.824V347.861ZM180.282 323.197H178.207V314.605H180.282V323.197ZM180.282 314.397L159.23 314.814V314.397L180.282 313.927V314.397ZM178.032 314.623V323.319H177.91V314.623H178.032ZM177.684 314.623V323.319H177.561V314.623H177.684ZM177.387 314.623V323.215H173.55V314.64L177.387 314.623ZM173.375 314.71V323.284H173.201V314.71H173.375ZM173.044 314.71V323.284H172.869V314.814L173.044 314.71ZM172.678 314.814V323.371H168.928V314.814H172.678ZM168.753 314.901V323.441H168.544V314.814L168.753 314.901ZM168.369 314.901V323.424H168.23V314.814L168.369 314.901ZM168.073 314.901V323.441H164.323V314.936L168.073 314.901ZM164.148 314.988V323.511H163.957V315.023L164.148 314.988ZM163.782 314.988V323.511H163.608V315.005L163.782 314.988ZM163.451 314.988V323.511H159.579V315.058L163.451 314.988ZM159.404 315.092V323.511H159.195V315.04L159.404 315.092ZM159.195 314.344V309.248H159.404V314.344H159.195ZM159.579 314.344V309.231H163.451V314.344H159.579ZM163.625 314.24V309.144H163.782V314.257L163.625 314.24ZM163.957 314.24V309.074H164.148V314.188L163.957 314.24ZM164.323 314.24V309.074L168.073 308.97V314.188L164.323 314.24ZM168.23 314.24V309.022H168.369V314.136L168.23 314.24ZM168.544 314.24V309.126H168.753V314.24H168.544ZM168.928 314.24V309.022H172.678V314.153L168.928 314.24ZM172.835 314.153V309.022H173.009V314.153H172.835ZM173.166 314.153V308.935H173.34V314.153H173.166ZM173.515 314.153V308.935H177.352V314.066L173.515 314.153ZM177.527 314.066V308.848H177.649V314.066H177.527ZM177.823 314.066V308.848H177.997V314.066H177.823ZM180.248 314.066H178.172V308.848H180.248V314.066ZM180.248 308.744L159.108 309.248C159.1 309.261 159.096 309.276 159.096 309.292C159.096 309.307 159.1 309.322 159.108 309.335V323.511L180.248 323.18V323.511L158.724 324.032V308.657L180.23 308.1L180.248 308.744ZM180.248 308.152L157.834 308.744V294.829L180.248 294.047V308.152ZM180.248 293.56H178.189V284.95H180.248V293.56ZM180.248 284.776L159.177 285.611V285.228L180.248 284.376V284.776ZM178.015 285.037V293.647H177.91V285.037H178.015ZM177.631 285.037V293.734H177.492V285.037H177.631ZM177.317 285.037V293.734L173.532 293.873V285.281L177.317 285.037ZM173.375 285.194V293.786H173.149V285.211L173.375 285.194ZM172.974 285.194V293.786H172.835V285.211L172.974 285.194ZM172.66 285.194V293.768L168.91 293.908V285.246L172.66 285.194ZM168.753 285.35V293.908H168.526V285.246L168.753 285.35ZM168.352 285.35V293.908H168.212V285.246L168.352 285.35ZM168.055 285.35V293.89L164.305 294.029V285.489L168.055 285.35ZM164.131 285.489V293.942H163.957V285.402L164.131 285.489ZM163.765 285.489V293.942H163.59V285.42L163.765 285.489ZM163.433 285.489V293.942L159.561 294.064V285.559L163.433 285.489ZM159.387 285.646V294.168H159.177V285.663L159.387 285.646ZM159.177 284.95V279.854H159.387V284.933L159.177 284.95ZM159.561 284.95V279.854L163.451 279.68V284.794L159.561 284.95ZM163.608 284.776V279.663H163.765V284.776H163.608ZM163.922 284.776V279.68H164.113V284.794L163.922 284.776ZM164.288 284.776V279.663L168.055 279.489V284.62L164.288 284.776ZM168.212 284.62V279.402H168.369V284.62H168.212ZM168.544 284.62V279.402H168.753V284.533L168.544 284.62ZM168.91 284.62V279.402L172.678 279.228V284.446L168.91 284.62ZM172.852 284.463V279.245H173.009V284.463H172.852ZM173.183 284.463V279.245H173.358V284.463H173.183ZM173.515 284.463V279.245L177.317 279.071V284.289L173.515 284.463ZM177.492 284.307V279.089H177.631V284.307H177.492ZM177.806 284.307V279.089H178.015V284.307H177.806ZM180.248 284.202H178.189V278.984L180.248 278.88V284.202ZM180.248 278.845L159.09 279.819V279.906V294.429L180.248 293.699V293.908L158.724 294.482V279.228L180.213 278.289L180.248 278.845ZM180.248 278.358L158.724 279.071L180.37 278.132L180.248 278.358ZM180.248 278.167L157.869 279.141V265.418L180.248 264.235V278.167ZM180.248 263.765L178.172 263.87V255.173L180.248 255.052V263.765ZM180.248 254.947L159.195 256.165V255.73L180.248 254.512V254.947ZM177.997 255.26V263.957H177.91V255.26H177.997ZM177.649 255.26V263.957H177.509V255.26H177.649ZM177.335 255.26V263.87L173.532 264.061V255.469L177.335 255.26ZM173.358 255.486V264.079H173.149V255.504L173.358 255.486ZM172.992 255.486V264.079H172.835V255.33L172.992 255.486ZM172.678 255.486V264.079L168.893 264.27V255.712L172.678 255.486ZM168.718 255.712V264.27H168.544V255.712H168.718ZM168.369 255.712V264.252H168.247V255.678L168.369 255.712ZM168.09 255.712V264.27L164.305 264.461V255.939L168.09 255.712ZM164.131 255.956V264.374H163.957V255.852L164.131 255.956ZM163.782 255.956V264.374H163.608V255.852L163.782 255.956ZM163.451 255.956V264.374L159.561 264.583V256.095L163.451 255.956ZM159.404 256.182V264.67H159.195V256.182H159.404ZM159.195 255.417V250.355H159.404V255.434L159.195 255.417ZM159.561 255.417V250.355L163.451 250.112V255.191L159.561 255.417ZM163.625 255.191V250.094H163.782V255.173L163.625 255.191ZM163.939 255.191V250.112H164.131V255.208L163.939 255.191ZM164.305 255.191V250.112L168.073 249.868V254.982L164.305 255.191ZM168.23 254.965V249.851H168.387V254.965H168.23ZM168.544 254.965V249.851H168.718V254.965H168.544ZM168.893 254.965V249.851L172.678 249.416V254.634L168.893 254.965ZM172.835 254.738V249.416H172.992V254.634L172.835 254.738ZM173.149 254.738V249.521H173.375V254.738H173.149ZM173.532 254.738V249.521L177.335 249.294V254.512L173.532 254.738ZM177.509 254.512V249.294H177.649V254.512H177.509ZM177.823 254.512V249.294H177.997V254.512H177.823ZM180.248 254.373L178.172 254.495V249.277L180.248 249.138V254.373ZM180.248 249.016L159.108 250.355V264.844L180.23 263.765V263.905L158.724 264.966V249.747L180.23 248.407L180.248 249.016ZM180.248 248.32L157.852 249.729V236.145L180.248 234.545V248.32ZM158.619 220.492L164.236 220.022L158.672 220.492H158.619ZM180.248 233.867L178.189 234.023V225.24L180.248 225.083V233.867ZM180.248 225.17L159.195 226.753V226.109L180.248 224.614V225.17ZM178.032 225.501V234.093H177.91V225.501H178.032ZM177.631 225.501V234.093H177.474V225.501H177.631ZM177.317 225.501V234.093L173.532 234.354V225.588L177.317 225.501ZM173.358 225.796V234.371H173.201V225.796H173.358ZM173.009 225.796V234.354H172.852V225.796H173.009ZM172.678 225.796V234.371L168.91 234.632V225.936L172.678 225.796ZM168.753 226.092V234.649H168.544V226.092H168.753ZM168.369 226.092V234.632H168.212V226.092H168.369ZM168.055 226.092V234.649L164.305 234.91V226.388L168.055 226.092ZM164.131 226.388V234.806H163.957V226.283L164.131 226.388ZM163.765 226.388V234.806H163.608V226.301L163.765 226.388ZM163.451 226.388V234.806L159.561 235.084V226.631L163.451 226.388ZM159.387 226.701V235.189H159.195V226.701H159.387ZM159.195 225.988V220.77H159.387V225.901L159.195 225.988ZM159.561 225.988V220.857L163.468 220.544V225.762L159.561 225.988ZM163.643 225.709V220.492H163.782V225.709H163.643ZM163.957 225.709V220.492H164.113V225.709H163.957ZM164.288 225.709V220.492L168.038 220.196V225.414L164.288 225.709ZM168.212 225.431V220.213H168.369V225.431H168.212ZM168.544 225.431V220.213H168.736V225.431H168.544ZM168.91 225.431V220.213L172.678 219.935V225.153L168.91 225.431ZM172.852 225.153V219.935H173.009V225.153H172.852ZM173.183 225.153V219.935H173.358V225.153H173.183ZM173.532 225.153V219.935L177.317 219.639V224.857L173.532 225.153ZM177.492 224.875V219.657H177.631V224.875H177.492ZM177.788 224.875V219.657H178.015V224.875H177.788ZM180.248 224.701L178.172 224.857V219.639L180.248 219.483V224.701ZM180.248 219.274L159.108 220.909C159.1 220.922 159.096 220.937 159.096 220.952C159.096 220.968 159.1 220.983 159.108 220.996V235.519L180.248 234.041V234.319L158.724 235.658V220.457L180.213 218.717L180.248 219.274ZM180.248 218.63L157.887 220.196V206.281L180.282 204.281L180.248 218.63ZM180.248 204.09L178.172 204.281V195.741L180.248 195.55V204.09ZM180.248 195.393L159.212 197.063V196.663L180.282 194.802L180.248 195.393ZM178.015 195.776V204.316H177.91V195.498L178.015 195.776ZM177.649 195.776V204.316H177.457V195.776H177.649ZM177.3 195.776V204.316L173.515 204.646V196.124L177.3 195.776ZM173.358 196.141V204.664H173.149V196.141H173.358ZM172.992 196.141V204.664H172.835V196.159L172.992 196.141ZM172.66 196.141V204.664L168.91 205.012V196.507L172.66 196.141ZM168.736 196.524V205.012H168.544V196.367L168.736 196.524ZM168.369 196.524V205.029H168.23V196.524H168.369ZM168.073 196.524V205.029L164.305 205.36V196.872L168.073 196.524ZM164.131 196.889V205.238H163.957V196.75L164.131 196.889ZM163.747 196.889V205.238H163.625V196.75L163.747 196.889ZM163.468 196.889V205.377L159.561 205.725V197.254L163.468 196.889ZM159.404 197.272V205.742H159.177V197.237L159.404 197.272ZM159.177 196.541V191.323H159.404V196.541H159.177ZM159.561 196.541V191.323L163.468 190.941V196.054L159.561 196.541ZM163.625 196.159V191.045H163.747V196.263L163.625 196.159ZM163.922 196.159V190.941H164.096V196.072L163.922 196.159ZM164.27 196.159V190.941L168.055 190.558V195.776L164.27 196.159ZM168.212 195.793V190.576H168.352V195.793H168.212ZM168.526 195.793V190.576H168.736V195.793H168.526ZM168.91 195.793V190.576L172.66 190.21V195.428L168.91 195.793ZM172.835 195.428V190.21H173.009V195.428H172.835ZM173.183 195.428V190.21H173.358V195.428H173.183ZM173.515 195.428V190.21L177.335 189.828V195.046L173.515 195.428ZM177.509 195.063V189.845H177.631V195.063H177.509ZM177.806 195.063V189.845H178.015V195.063H177.806ZM180.248 194.837L178.172 195.028V189.81L180.248 189.602V194.837ZM180.248 189.393L159.125 191.323V205.794L180.265 203.899V204.003L158.724 206.021V190.906L180.23 188.767L180.248 189.393ZM180.248 188.871L158.724 190.749H158.358L180.3 188.575L180.248 188.871ZM180.248 188.593L157.834 190.819V177.148L180.248 174.713V188.593ZM180.248 174.243L178.189 174.47V165.634L180.248 165.39V174.243ZM180.248 165.547L159.247 167.582V167.164L180.282 164.903L180.248 165.547ZM178.032 165.964V174.522H177.91V165.669L178.032 165.964ZM177.649 165.964V174.522H177.527V165.703L177.649 165.964ZM177.352 165.964V174.522L173.55 174.939V166.156L177.352 165.964ZM173.375 166.417V174.957H173.131V166.19L173.375 166.417ZM172.974 166.417V174.957H172.835V166.225L172.974 166.417ZM172.66 166.417V174.957L168.893 175.374V166.851L172.66 166.417ZM168.718 166.869V175.391H168.544V166.869H168.718ZM168.369 166.869V175.391H168.23V166.869H168.369ZM168.055 166.869V175.391L164.288 175.809V167.286L168.055 166.869ZM164.113 167.304V175.67H163.957V167.234L164.113 167.304ZM163.765 167.304V175.809H163.643V167.286L163.765 167.304ZM163.468 167.304V175.809L159.561 176.226V167.721L163.468 167.304ZM159.387 167.756V176.261H159.212V167.756H159.387ZM159.247 166.973V161.929H159.422V166.973H159.247ZM159.596 166.973V161.877L163.503 161.425V166.538L159.596 166.973ZM163.677 166.538V161.39H163.817V166.608L163.677 166.538ZM163.991 166.538V161.32H164.166V166.451L163.991 166.538ZM164.323 166.538V161.32L168.09 160.868V166.086L164.323 166.538ZM168.265 166.104V160.886H168.387V166.104H168.265ZM168.561 166.104V160.886H168.753V166.104H168.561ZM168.928 166.104V160.886L172.678 160.312V165.53L168.928 166.104ZM172.904 165.686V160.468H173.026V165.686H172.904ZM173.201 165.686V160.468H173.375V165.686H173.201ZM173.55 165.686V160.468L177.387 159.999V165.216L173.55 165.686ZM177.561 165.251V160.033H177.684V165.251H177.561ZM177.84 165.251V160.033H178.067V165.251H177.84ZM180.282 164.99L178.224 165.216V159.999L180.282 159.738V164.99ZM180.282 159.512L159.16 161.755V176.244L180.265 173.93V174.07L158.724 176.592V161.494L180.213 158.955L180.282 159.512ZM180.282 159.042L158.724 161.32H158.34L180.3 158.694L180.282 159.042ZM180.282 158.729L157.869 161.146V150.832L180.282 148.067V158.729ZM184.399 347.861H180.457V147.615L184.399 147.128V347.861ZM212.673 117.838H212.376H212.079C211.19 117.629 210.51 116.412 210.51 114.951C210.458 114.213 210.643 113.478 211.038 112.853C211.433 112.227 212.018 111.744 212.707 111.472H213.074H213.248C213.79 111.707 214.242 112.109 214.537 112.62C214.833 113.13 214.955 113.722 214.888 114.307C214.95 115.055 214.768 115.803 214.369 116.44C213.969 117.076 213.374 117.566 212.673 117.838ZM212.864 117.942C213.562 117.637 214.146 117.123 214.537 116.472C214.928 115.82 215.105 115.064 215.045 114.307C215.072 113.801 214.984 113.296 214.788 112.83C214.591 112.363 214.292 111.946 213.911 111.611C214.39 111.889 214.78 112.296 215.036 112.785C215.292 113.275 215.404 113.826 215.359 114.377C215.411 115.114 215.225 115.849 214.83 116.474C214.435 117.1 213.85 117.583 213.161 117.855C213.047 117.91 212.922 117.94 212.795 117.942H212.864ZM213.51 117.942V124.065H213.178V118.081L213.51 117.942ZM206.254 118.568C206.303 119.079 206.183 119.593 205.912 120.029C205.642 120.466 205.235 120.802 204.754 120.986C205.188 120.742 205.544 120.381 205.782 119.944C206.019 119.507 206.128 119.012 206.097 118.516C206.113 117.875 205.882 117.253 205.451 116.777C205.72 116.993 205.933 117.269 206.073 117.584C206.212 117.899 206.274 118.242 206.254 118.586V118.568ZM205.155 121.021V125.23H204.824V121.16L205.155 121.021ZM204.231 114.759C204.097 114.776 203.963 114.776 203.829 114.759H203.672H203.463C202.77 114.43 202.199 113.891 201.83 113.22C201.46 112.549 201.312 111.78 201.405 111.02C201.322 110.056 201.557 109.092 202.073 108.273C202.589 107.453 203.359 106.824 204.265 106.48H204.562H204.754H204.963C205.663 106.787 206.247 107.308 206.63 107.968C207.012 108.628 207.174 109.392 207.091 110.15C207.194 111.13 206.97 112.117 206.453 112.957C205.935 113.797 205.154 114.443 204.231 114.794V114.759ZM204.231 114.898C205.169 114.534 205.963 113.875 206.495 113.023C207.026 112.17 207.266 111.168 207.178 110.167C207.203 109.503 207.07 108.842 206.792 108.237C206.513 107.633 206.096 107.103 205.574 106.689C206.249 107.016 206.809 107.541 207.177 108.193C207.545 108.846 207.703 109.596 207.632 110.341C207.723 111.313 207.493 112.288 206.976 113.117C206.46 113.946 205.685 114.584 204.771 114.933C204.62 114.946 204.468 114.94 204.318 114.916L204.231 114.898ZM205.068 114.898V116.533H204.771V115.159L205.068 114.898ZM204.335 120.882H204.126H204.074C203.707 120.71 203.404 120.428 203.207 120.075C203.01 119.722 202.929 119.317 202.975 118.916C202.927 118.405 203.051 117.893 203.325 117.459C203.599 117.025 204.01 116.694 204.492 116.516H204.841C205.209 116.682 205.515 116.96 205.716 117.31C205.916 117.659 206.001 118.063 205.957 118.464C206.021 118.99 205.904 119.523 205.625 119.974C205.346 120.426 204.922 120.77 204.422 120.951L204.335 120.882ZM193.382 347.861H184.573V147.128L193.382 148.31V347.861ZM217.103 347.861H193.608V283.75L217.155 282.811L217.103 347.861ZM217.103 282.654L193.556 283.611V231.519L217.103 229.779V282.654ZM217.103 229.623L193.608 231.327V179.253L217.155 176.8L217.103 229.623ZM217.103 176.644L193.608 179.148V148.223L189.579 147.684V127.561L217.225 123.769L217.103 176.644ZM244.034 347.861H217.26V318.936L244.034 319.51V347.861ZM244.034 319.354L217.26 318.797V289.525L244.034 290.603V319.354ZM244.034 290.464L217.26 289.368V260.148L244.034 261.748V290.464ZM244.034 261.574L217.26 259.974V230.701L244.034 232.806V261.574ZM244.034 232.667L217.26 230.545V201.29L244.034 203.933V232.667ZM244.034 203.777L217.26 201.15V171.843L244.034 175.044V203.777ZM244.034 174.887L217.26 171.669V142.449L244.034 146.102V174.887ZM249.667 347.861H244.191V319.51L249.65 319.615L249.667 347.861ZM249.667 319.475L244.191 319.336V290.62L249.65 290.846L249.667 319.475ZM249.667 290.69L244.191 290.464V261.73L249.65 262.061L249.667 290.69ZM249.667 261.904L244.208 261.591V232.823L249.667 233.258V261.904ZM249.667 233.102L244.208 232.684V203.951L249.667 204.49V233.102ZM249.667 204.333L244.208 203.794V175.061L249.667 175.704V204.333ZM249.667 175.548L244.208 174.904V146.102L249.667 146.849V175.548ZM251.569 347.861H249.824V319.632H251.569V347.861ZM251.569 319.51H249.824V290.846H251.569V319.51ZM251.569 290.759H249.824V262.061L251.569 262.165V290.759ZM251.569 262.026L249.824 261.922V233.275L251.569 233.415V262.026ZM251.569 233.258L249.824 233.119V204.507L251.569 204.681V233.258ZM251.569 204.525L249.824 204.351V175.67L251.569 175.878V204.525ZM251.569 175.774L249.824 175.583V146.936L251.569 147.162V175.774ZM251.569 147.023L217.26 142.275V123.751L251.569 128.969V147.023ZM428.066 75.8336V86.5129L402.705 81.295V70.4592L428.066 75.8336ZM402.095 315.197V307.857L424.892 308.553V315.823L402.6 315.214L402.095 315.197ZM402.513 315.353V326.259L375.722 326.659V315.892L402.513 315.353ZM402.688 315.353L428.066 316.066V326.728L402.74 326.259L402.688 315.353ZM402.007 307.665L386.903 307.996L402.6 307.613L425.589 308.344H424.996L402.007 307.665ZM402.513 296.551V307.457L375.984 308.083H375.722V297.421L402.513 296.551ZM402.095 296.395V289.055L424.892 290.064V297.282L402.6 296.395H402.095ZM402.688 307.457V296.551L428.066 297.578V308.257L402.688 307.457ZM402.007 288.881L378.373 289.629H377.972L402.583 288.777L426.322 289.855H424.996L402.007 288.881ZM402.513 277.715V288.603L375.896 289.525H375.722V278.793L402.513 277.715ZM402.095 277.558V270.34L424.892 271.627V278.741L402.6 277.541L402.095 277.558ZM402.688 288.603V277.715L428.066 279.071V289.751L402.688 288.603ZM402.007 270.166L378.373 271.14H377.205L402.6 270.027L426.583 271.488H424.996L402.007 270.166ZM402.513 258.878V269.766L375.809 270.949H375.722V260.2L402.513 258.878ZM402.095 258.721V251.503L424.874 253.243V260.304L402.6 258.756H402.095V258.721ZM402.688 269.766V258.878L428.066 260.617V271.297L402.688 269.766ZM402.007 251.329L378.373 252.617L376.908 252.477L402.6 251.086L426.915 252.825L424.996 252.947L402.007 251.329ZM423.583 235.084L403.821 233.241V239.763L420.217 241.189L402.635 239.728H402.112V232.615L424.892 234.545V241.502L423.636 241.398V235.154L423.583 235.084ZM423.583 235.241V241.45H423.322V235.241H423.583ZM423.147 235.241V241.45L420.13 241.172V234.945L423.147 235.241ZM419.955 234.928V241.172H419.729V234.806L419.955 234.928ZM419.554 234.928V241.172H419.275V234.806L419.554 234.928ZM419.101 234.928V241.154L414.81 240.789V234.528L419.101 234.928ZM414.636 234.51V240.772H414.409V234.51H414.636ZM414.252 234.51V240.772H413.955V234.493L414.252 234.51ZM413.798 234.51V240.789L409.368 240.407V234.11L413.798 234.51ZM409.194 234.093V240.389H408.949V234.076L409.194 234.093ZM408.792 234.093V240.407H408.478V234.11L408.792 234.093ZM408.322 234.093V240.407L403.978 240.024V233.415L408.322 234.093ZM402.513 240.024V250.912L375.774 252.356V241.607L402.513 240.024ZM402.688 250.912V240.024L428.066 242.129V252.808L402.688 250.912ZM402.025 232.58L378.391 234.041L376.786 233.884L402.618 232.145L427.037 234.319L424.996 234.458L402.025 232.58ZM402.513 221.152V232.058L375.757 233.797V223.048L402.513 221.152ZM402.095 221.013V213.934L424.892 216.213V223.17L402.618 220.996L402.095 221.013ZM402.688 232.058V221.152L428.066 223.64V234.319L402.688 232.058ZM402.025 213.743L378.391 215.482L376.647 215.308L402.548 213.326L427.107 215.848L424.944 216.004L402.025 213.743ZM402.513 202.333V213.221L375.757 215.256V204.507L402.513 202.333ZM393.251 202.751L387.513 203.203V197.011L393.251 196.541V202.751ZM393.426 202.751V196.437H393.775V202.768L393.426 202.751ZM393.932 202.751V196.472H394.124V202.681L393.932 202.751ZM394.298 202.751V196.541L400.473 196.02V202.246L394.298 202.751ZM423.583 198.02L403.821 195.863V202.264L402.723 202.142H402.199V195.185L425.014 197.794V204.629L423.775 204.49V198.037C423.785 198.012 423.783 197.984 423.772 197.959C423.76 197.935 423.74 197.916 423.714 197.907C423.689 197.897 423.661 197.899 423.636 197.91C423.612 197.922 423.593 197.942 423.583 197.968V198.02ZM423.583 198.228V204.542H423.304V198.281L423.583 198.228ZM420.636 197.863L423.304 198.159L420.636 197.863ZM423.147 198.333V204.49L420.13 204.159V197.968L423.147 198.333ZM419.955 197.794V204.142H419.729V197.794H419.955ZM419.572 197.794V204.09H419.275V197.915L419.572 197.794ZM415.926 197.359L419.24 197.707L415.926 197.359ZM419.101 197.898V204.038L414.827 203.568V197.394L419.101 197.898ZM414.653 197.202V203.499H414.426V197.167L414.653 197.202ZM414.252 197.202V203.499H413.938V197.307L414.252 197.202ZM413.781 197.202V203.377L409.351 202.89V196.68L413.781 197.202ZM409.176 196.541V202.872H408.949V196.541H409.176ZM408.775 196.541V202.855H408.496V196.541H408.775ZM408.339 196.541V202.733L403.978 202.246V196.037L408.339 196.541ZM402.775 213.169V202.281L428.066 205.238V215.917L402.775 213.169ZM402.112 194.959L378.478 196.941L376.629 196.698L402.705 194.489L427.333 197.411L425.101 197.585L402.112 194.959ZM402.6 183.444V194.332L375.809 196.611V185.845L402.6 183.444ZM380.24 185.358V179.027H380.431V185.271L380.24 185.358ZM380.554 178.957L386.536 178.383L380.554 178.957ZM386.536 178.592V184.784L380.606 185.323V179.148L386.536 178.592ZM386.693 184.766V178.383H387.007V184.784L386.693 184.766ZM387.182 184.766V178.4H387.373V184.697L387.182 184.766ZM387.548 184.766V178.453L393.286 177.896V184.175L387.548 184.766ZM393.461 184.227V177.809H393.792V184.227H393.461ZM393.967 184.227V177.826H394.158V184.157L393.967 184.227ZM394.315 184.227V177.931L400.507 177.339V183.67L394.315 184.227ZM423.618 179.705L403.856 177.165V183.531L402.757 183.392H402.234V176.435L425.049 179.427V186.105L423.81 185.949V179.601C423.815 179.571 423.807 179.54 423.789 179.515C423.771 179.491 423.744 179.475 423.714 179.47C423.684 179.465 423.654 179.473 423.629 179.491C423.604 179.509 423.588 179.536 423.583 179.566L423.618 179.705ZM423.618 179.896V186.123H423.357V180.001L423.618 179.896ZM423.182 179.896V186.001L420.147 185.618V179.496L423.182 179.896ZM419.973 179.322V185.601H419.781V179.34L419.973 179.322ZM419.607 179.322V185.549H419.31V179.409L419.607 179.322ZM419.136 179.322V185.427L414.845 184.871V178.748L419.136 179.322ZM414.688 178.574V184.853H414.444V178.592L414.688 178.574ZM414.287 178.574V184.818H413.99V178.661L414.287 178.574ZM413.816 178.574V184.731L409.385 184.157V178L413.816 178.574ZM409.211 177.861V184.14H408.984V177.861H409.211ZM408.81 177.861V184.123H408.513V177.948L408.81 177.861ZM408.356 177.861V184.018L404.013 183.462V177.409L408.356 177.861ZM402.81 194.367V183.479L428.188 186.697V197.376L402.81 194.367ZM402.147 176.174L378.513 178.435L376.612 178.192L402.775 175.67L427.333 178.992L424.926 179.218L402.147 176.174ZM402.635 164.625V175.513L375.844 178.105V167.373L402.635 164.625ZM380.24 166.747V160.468H380.431V166.677L380.24 166.747ZM380.606 166.747V160.52L386.501 159.912V166.121L380.606 166.747ZM386.658 166.138V159.772H387.007V166.104L386.658 166.138ZM387.182 166.138V159.738H387.408V165.982L387.182 166.138ZM387.583 166.138V159.79L393.304 159.216V165.425L387.583 166.138ZM393.478 165.53V159.059H393.81V165.408L393.478 165.53ZM393.967 165.53V159.042H394.158V165.303L393.967 165.53ZM394.315 165.53V159.112L400.507 158.451V164.695L394.315 165.53ZM423.618 161.303L403.821 158.277V164.556L402.723 164.399H402.199V157.442L424.996 160.729V167.408L423.775 167.234V161.181C423.787 161.156 423.788 161.127 423.778 161.101C423.768 161.075 423.748 161.054 423.723 161.042C423.698 161.031 423.669 161.03 423.642 161.039C423.616 161.049 423.595 161.069 423.583 161.094L423.618 161.303ZM423.618 161.512V167.617H423.357V161.373L423.618 161.512ZM420.13 160.99L423.287 161.442L420.13 160.99ZM423.147 161.599V167.547L420.043 166.973V160.938L423.147 161.599ZM419.973 160.955V166.973H419.746V160.712L419.973 160.955ZM419.572 160.955V167.095H419.275V160.781L419.572 160.955ZM417.322 160.607L419.205 160.868L417.322 160.607ZM419.066 161.042V167.025L414.793 166.417V160.155L419.066 161.042ZM414.566 160.016V166.19H414.374V160.016H414.566ZM414.2 160.016V166.104H413.886V160.016H414.2ZM413.729 160.016V166.051L409.263 165.425V159.338L413.729 160.016ZM409.106 159.216V165.408H408.88V159.164L409.106 159.216ZM408.705 159.216V165.39H408.409V159.303L408.705 159.216ZM408.234 159.216V165.234L403.891 164.625V158.59L408.234 159.216ZM402.688 175.565V164.66L428.066 168.138V178.853L402.688 175.565ZM402.025 157.477L378.373 160.016L376.385 159.72L402.548 156.955L427.421 160.607L424.944 160.851L402.025 157.477ZM402.513 145.841V156.711L375.722 159.546V148.78L402.513 145.841ZM380.24 148.119V141.875H380.431V148.032L380.24 148.119ZM380.536 141.805L386.536 141.127L380.536 141.805ZM386.519 141.301V147.423L380.588 148.084V141.962L386.519 141.301ZM386.693 147.406V141.11H387.007V147.406H386.693ZM387.182 147.406V141.144H387.373V147.319L387.182 147.406ZM387.478 141.075L391.56 140.605L387.478 141.075ZM393.304 140.571V146.728L387.53 147.371V141.179L393.304 140.571ZM393.478 146.71V140.344H393.81V146.623L393.478 146.71ZM393.967 146.71V140.327H394.141V146.536L393.967 146.71ZM394.315 146.71V140.397L400.507 139.701V145.875L394.315 146.71ZM423.583 142.623L403.821 139.492V145.719L402.723 145.562H402.217V138.866L424.979 142.484V149.076L423.775 148.884V142.727L423.583 142.623ZM423.583 142.814V148.832H423.304V142.919L423.583 142.814ZM421.211 142.397L423.269 142.727L421.211 142.397ZM423.147 142.866V148.763L420.112 148.293V142.379L423.147 142.866ZM419.955 142.188V148.276H419.729V142.188H419.955ZM419.554 142.188V148.241H419.258V142.275L419.554 142.188ZM414.827 141.405L419.223 142.101L414.827 141.405ZM419.101 142.275V148.171L414.827 147.51V141.579L419.101 142.275ZM414.653 141.371V147.493H414.426V141.353L414.653 141.371ZM414.269 141.371V147.441H413.955V141.423L414.269 141.371ZM409.333 140.571L413.903 141.301L409.333 140.571ZM413.781 141.44V147.371L409.333 146.675V140.71L413.781 141.44ZM409.176 140.518V146.658H408.967V140.466L409.176 140.518ZM408.792 140.518V146.623H408.478V140.553L408.792 140.518ZM404.1 139.736L408.444 140.431L404.1 139.736ZM408.304 140.605V146.536L403.978 145.875V139.84L408.304 140.605ZM402.775 156.746V145.823L428.153 149.737V160.433L402.775 156.746ZM402.112 138.727L378.478 141.458L376.402 141.092L402.705 138.049L427.647 142.066L425.101 142.379L402.112 138.727ZM402.6 126.987V137.892L375.722 140.884V130.204L402.6 126.987ZM380.24 129.491V123.334H380.449V129.404L380.24 129.491ZM380.536 123.264L386.519 122.534L380.536 123.264ZM386.501 122.69V128.708L380.606 129.422V123.491L386.501 122.69ZM386.676 128.708V122.499H387.025V128.708H386.676ZM387.182 128.708V122.482H387.373V128.708H387.182ZM387.478 122.447L393.304 121.734L387.478 122.447ZM393.286 121.908V127.961L387.53 128.656V122.551L393.286 121.908ZM393.461 127.943V121.647H393.81V127.891L393.461 127.943ZM393.967 127.943V121.647H394.158V127.734L393.967 127.943ZM394.298 121.699L400.595 120.916L394.298 121.699ZM400.507 121.09V126.969L394.315 127.717V121.751L400.507 121.09ZM423.618 124.204L408.827 121.664L403.856 120.812V126.969L402.757 126.778H402.252V120.012L425.031 123.995V130.465L423.81 130.274V124.186C423.822 124.156 423.821 124.123 423.808 124.094C423.795 124.064 423.77 124.041 423.74 124.03C423.71 124.018 423.677 124.019 423.647 124.032C423.618 124.045 423.595 124.069 423.583 124.099L423.618 124.204ZM420.13 123.838L423.357 124.395H423.235L420.13 123.838ZM423.165 124.534V130.343L420.13 129.822V123.891L423.165 124.534ZM423.322 124.534L423.583 124.43V130.43H423.322V124.534ZM419.955 123.751V129.822H419.729V123.595L419.955 123.751ZM414.81 122.934L419.328 123.699H419.171L414.81 122.934ZM419.118 123.873V129.682L414.81 128.952V122.969L419.118 123.873ZM419.275 123.873L419.554 123.769V129.769H419.275V123.873ZM414.653 122.864V128.935H414.426V122.69L414.653 122.864ZM409.42 122.012L414.077 122.812H413.92L409.42 122.012ZM413.868 122.969V128.708L409.42 127.961V122.047L413.868 122.969ZM414.025 122.969L414.322 122.864V128.708H414.025V122.969ZM409.106 121.751V127.839H408.862V121.751H409.106ZM403.874 120.899L408.426 121.682H408.269L403.874 120.899ZM408.217 121.856V127.7L403.891 126.969V121.056L408.217 121.856ZM408.391 121.856H408.67V127.891H408.391V121.856ZM402.67 137.857V126.969L428.049 131.248V141.945L402.67 137.857ZM402.007 119.908L378.373 122.864L376.245 122.464L402.6 119.177L427.578 123.595L424.996 123.908L402.007 119.908ZM402.496 108.132V119.021L375.705 122.36V111.611L402.496 108.132ZM380.24 110.863V104.776H380.431V110.759L380.24 110.863ZM380.536 104.723L386.554 103.923L380.536 104.723ZM386.501 104.097V110.046L380.588 110.811V104.88L386.501 104.097ZM386.676 110.028V103.871H387.007V110.011L386.676 110.028ZM387.164 110.028V103.854H387.373V109.924L387.164 110.028ZM387.478 103.854L393.321 103.089L387.478 103.854ZM393.286 103.228V109.228L387.53 109.976V103.941L393.286 103.228ZM393.461 109.211V102.967H393.792V109.124L393.461 109.211ZM393.967 109.211V102.949H394.158V109.054L393.967 109.211ZM394.315 109.211V103.019L400.507 102.201V108.219L394.315 109.211ZM423.636 105.889L419.607 105.123L408.81 103.089L403.856 102.167V108.272L402.757 108.063H402.252V101.349L425.049 105.593V112.063L423.828 111.837V105.767C423.828 105.767 423.636 105.697 423.601 105.697L423.636 105.889ZM420.06 105.454L423.287 106.063L420.06 105.454ZM423.112 106.184V111.924L420.06 111.35V105.611L423.112 106.184ZM423.287 106.184H423.531V112.098H423.287V106.184ZM419.903 105.367V111.333H419.676V105.123L419.903 105.367ZM414.775 104.445L419.24 105.28H419.118L414.775 104.445ZM419.048 105.437V111.176L414.775 110.394V104.358L419.048 105.437ZM419.223 105.437L419.519 105.35V111.281H419.223V105.437ZM414.601 104.393V110.376H414.374V104.115L414.601 104.393ZM409.368 103.436L414.008 104.323H413.886L409.368 103.436ZM413.816 104.463V110.22L409.368 109.402V103.384L413.816 104.463ZM413.99 104.463L414.269 104.376V110.324H413.99V104.463ZM409.194 103.384V109.385H408.949V103.089L409.194 103.384ZM403.961 102.428L408.496 103.28H408.356L403.961 102.428ZM408.287 103.454V109.228L403.961 108.428V102.358L408.287 103.454ZM408.461 103.454H408.758V109.42H408.461V103.454ZM402.757 119.281V108.132L428.136 112.811V123.491L402.757 119.281ZM402.095 101.419L378.373 104.358L376.228 103.958L402.6 100.34L427.63 105.089L424.996 105.454L402.095 101.419ZM402.583 89.5567V100.184L375.792 103.854V93.1049L402.583 89.5567ZM380.24 92.2874V86.2521H380.431V92.2179L380.24 92.2874ZM386.501 85.4868V91.4004L380.606 92.2353V86.3216L386.501 85.4868ZM380.798 86.1303L386.501 85.2954L380.798 86.1303ZM386.676 91.3482V85.2259H387.025V91.3308L386.676 91.3482ZM387.199 91.3482V85.2259H387.373V91.2091L387.199 91.3482ZM393.304 84.5301V90.4438L387.548 91.2612V85.3128L393.304 84.5301ZM390.879 84.7041L393.304 84.3562L390.879 84.7041ZM393.443 90.4438V84.304H393.775V90.4438H393.443ZM393.949 90.3568V84.2692H394.124V90.2872L393.949 90.3568ZM394.281 90.3568V84.3388L400.473 83.4866V89.4524L394.281 90.3568ZM423.601 87.313L419.572 86.4956L414.339 85.3998L403.874 83.2778V89.3306L402.775 89.1045H402.287V82.5647L425.066 87.1391V93.5049L423.845 93.2614V87.3478C423.845 87.3478 423.636 87.2608 423.601 87.2608V87.313ZM423.496 87.5043V93.2267H423.235V87.5217L423.496 87.5043ZM420.008 86.7912L423.182 87.4348L420.008 86.7912ZM423.025 87.5739V93.2093L420.008 92.6005V86.9652L423.025 87.5739ZM419.833 86.7217V92.5657H419.607V86.6173L419.833 86.7217ZM419.432 86.7217V92.5309H419.153V86.7043L419.432 86.7217ZM414.688 85.7477L419.153 86.6521L414.688 85.7477ZM418.979 86.7912V92.357L414.688 91.5048V85.8172L418.979 86.7912ZM414.531 85.6781V91.5569H414.304V85.5389L414.531 85.6781ZM414.13 85.6781V91.5395H413.851V85.7998L414.13 85.6781ZM409.211 84.7041L413.833 85.6433H413.729L409.211 84.7041ZM413.676 85.765V91.3134L409.246 90.4438V84.7389L413.676 85.765ZM409.054 84.5997V90.4438H408.862V84.4258L409.054 84.5997ZM403.821 83.6083L408.391 84.5475H408.252L403.821 83.6083ZM408.165 84.6693V90.3742L403.821 89.5045V83.6431L408.165 84.6693ZM408.322 84.6693L408.653 84.5649V90.4612H408.322V84.6693ZM402.618 100.323V89.3132L427.996 94.305V105.002L402.618 100.323ZM401.955 82.4952L377.152 86.1477L375.321 85.7129V85.6085L402.583 81.6255L427.63 86.7217L424.909 87.1217L401.955 82.4952ZM350.937 313.823V313.44L368.013 313.892V307.178H367.925L350.85 306.604V306.204L369.024 306.796V314.379L351.722 313.944L350.937 313.823ZM351.722 313.962V325.25H350.937V313.857L351.722 313.962ZM350.937 313.266V306.622L355.402 306.761V313.388L350.937 313.266ZM355.559 313.388V306.778H355.838V313.405L355.559 313.388ZM356.012 313.388V306.761H356.274V313.37L356.012 313.388ZM356.431 313.388V306.761L361.315 306.918V313.51L356.431 313.388ZM361.472 313.51V306.935H361.733V313.527L361.472 313.51ZM361.908 313.51V306.935H362.204V313.527L361.908 313.51ZM362.379 313.51V306.935L367.472 307.092V313.649L362.379 313.51ZM367.611 313.649V307.092H368.03V313.631L367.611 313.649ZM367.978 294.516V287.75L350.919 286.985V286.533L369.077 287.385V294.899L351.791 294.221H350.937V293.873L367.978 294.516ZM350.919 293.647V286.985L355.367 287.176V293.768L350.919 293.647ZM355.524 293.838V287.246H355.821V293.838H355.524ZM355.978 293.838V287.246H356.239V293.942L355.978 293.838ZM356.396 293.838V287.246L361.28 287.472V294.029L356.396 293.838ZM361.454 294.047V287.507H361.716V294.064L361.454 294.047ZM361.89 294.047V287.472H362.169V294.029L361.89 294.047ZM362.344 294.047V287.472L367.454 287.698V294.255L362.344 294.047ZM367.577 294.255V287.716H368.03V294.255H367.577ZM367.908 275.123V268.375V268.288L350.85 267.279V266.827L369.059 267.922V275.367L351.722 274.445H350.867V274.184L367.908 275.123ZM350.867 274.027V267.401L355.28 267.661V274.271L350.867 274.027ZM355.437 274.271V267.661H355.768V274.271H355.437ZM355.925 274.271V267.661H356.187V274.271H355.925ZM356.361 274.271V267.853L361.21 268.148V274.74L356.361 274.271ZM361.385 274.549V267.957H361.681V274.549H361.385ZM361.856 274.549V267.957H362.1V274.532L361.856 274.549ZM362.274 274.549V267.957L367.402 268.27V274.827L362.274 274.549ZM367.507 274.845V268.27H368.03V274.845H367.507ZM367.838 255.712V249.068L350.78 247.816V247.364L368.972 248.72V256.078L351.652 254.912H350.797V254.686L367.838 255.712ZM350.797 254.391V247.781L355.262 248.112V254.686L350.797 254.391ZM355.419 254.704V248.112H355.821V254.704H355.419ZM355.855 254.704V248.112H356.117V254.704H355.855ZM356.292 254.704V248.129L361.158 248.494V255.034L356.292 254.704ZM361.315 255.052V248.72H361.594V255.278L361.315 255.052ZM361.768 255.052V248.72H362.065V255.26L361.768 255.052ZM362.239 255.052V248.72L367.332 249.103V255.678L362.239 255.052ZM367.472 255.399V248.877H367.751V255.678L367.472 255.399ZM368.03 171.652L350.972 169.373V168.973L369.164 171.374V178.331L368.1 178.209V171.739C368.1 171.719 368.094 171.699 368.081 171.683C368.068 171.667 368.05 171.656 368.03 171.652ZM367.943 171.826V178.261H367.646V171.878L367.943 171.826ZM367.489 171.826V178.157L362.414 177.513V171.182L367.489 171.826ZM362.257 171.008V177.496H361.978V171.008H362.257ZM361.803 171.008V177.409H361.507V171.061L361.803 171.008ZM361.35 171.008V177.409L356.483 176.783V170.452L361.35 171.008ZM356.309 170.208V176.731H356.065V170.226L356.309 170.208ZM355.89 170.208V176.696H355.576V170.295L355.89 170.208ZM355.419 170.208V176.574L351.931 176.122L351.076 176.226V169.686L355.419 170.208ZM351.774 176.296V187.845H350.989V176.47L351.774 176.296ZM351.774 187.862L374.449 190.523L369.356 190.976V190.523L351.076 188.367V188.019L351.774 187.862ZM369.111 190.593V197.707L368.082 197.585V190.958L350.989 188.958V188.523L369.111 190.593ZM367.925 191.045V197.568H367.594V191.149L367.925 191.045ZM367.42 191.045V197.446L362.344 196.872V190.436L367.42 191.045ZM362.187 190.28V196.854H361.908V190.28H362.187ZM361.751 190.28V196.837H361.454V190.454L361.751 190.28ZM361.297 190.28V196.75L356.414 196.193V189.723L361.297 190.28ZM356.257 189.584V196.176H355.995V189.567L356.257 189.584ZM355.838 189.584V196.141H355.541V189.654L355.838 189.584ZM355.367 189.584V196.037L351.879 195.637L351.024 195.759V189.045L355.367 189.584ZM351.722 195.828V207.238H350.937V195.863L351.722 195.828ZM351.722 207.395L374.205 209.725L369.216 210.108V209.725L350.937 207.812V207.534L351.722 207.395ZM369.059 209.812V216.996L367.995 216.891V210.456L350.937 208.716V208.316L369.059 209.812ZM367.838 210.282V216.874H367.577V210.456L367.838 210.282ZM367.402 210.282V216.874L362.274 216.387V209.743L367.402 210.282ZM362.169 209.725V216.369H361.89V209.725H362.169ZM361.716 209.725V216.369H361.454V209.725H361.716ZM361.297 209.725V216.369L356.414 215.9V209.203L361.297 209.725ZM356.257 209.186V215.882H355.978V209.186H356.257ZM355.821 209.186V215.882H355.541V209.186H355.821ZM355.367 209.186V215.882L351.879 215.535L351.024 215.639V208.682L355.367 209.186ZM351.704 215.708V227.118H350.919V215.743L351.704 215.708ZM351.704 227.275L374.048 229.24L369.199 229.571V229.258V229.171L350.919 227.536V227.344L351.704 227.275ZM369.042 229.327V236.545H368.03V229.849V229.762L350.972 228.249V227.797L369.042 229.327ZM367.821 229.832V236.354H367.542V229.814L367.821 229.832ZM367.367 229.832V236.354L362.274 235.919V229.379L367.367 229.832ZM362.135 229.362V235.919H361.856V229.362H362.135ZM361.699 229.362V235.937H361.402V229.24L361.699 229.362ZM361.245 229.362V235.919L356.379 235.519V228.927L361.245 229.362ZM356.204 228.927V235.502H355.943V228.91L356.204 228.927ZM355.786 228.927V235.519H355.507V228.718L355.786 228.927ZM355.332 228.927V235.519L350.884 235.136V228.527L355.332 228.927ZM365.972 236.58L351.757 235.397H350.902V235.258L365.972 236.58ZM351.669 235.571V246.981H350.884V235.606L351.669 235.571ZM351.669 247.138L373.769 248.773L369.164 249.034V248.773C369.175 248.745 369.175 248.714 369.164 248.686L350.884 247.329V246.981L351.669 247.138ZM351.669 255.225V266.635H350.884V255.26L351.669 255.225ZM351.669 266.792L373.594 268.079L369.181 268.305V267.853V267.766L350.884 266.653L351.669 266.792ZM351.669 274.845V286.255H350.884V274.88L351.669 274.845ZM351.669 286.429L373.071 287.368L369.146 287.524V287.403L369.059 287.316L350.815 286.463H351.669V286.429ZM369.111 306.639L351.477 306.083H351.704L372.059 306.691H369.199L369.268 306.413L369.111 306.639ZM351.669 294.464V305.874H350.884V294.499L351.669 294.464ZM351.844 314.101L375.059 314.692V325.893L351.966 325.25L351.844 314.101ZM374.362 314.501L369.234 314.379V306.883L374.362 306.761V314.501ZM351.844 305.804V294.395L375.059 295.299V306.5L351.844 305.804ZM374.362 295.108L369.216 294.899V287.594L374.362 287.385V295.108ZM351.844 286.15V274.74L375.059 275.975V286.985L351.844 286.15ZM374.362 275.714L369.251 275.454V268.322L374.362 268.044V275.714ZM351.844 266.479V255.069L375.059 256.634V267.853L351.844 266.479ZM374.344 256.408L369.234 256.078V249.034L374.344 248.755V256.408ZM351.844 246.825V235.415L375.059 237.345V248.547L351.844 246.825ZM374.344 237.119L369.234 236.684V229.727L374.344 229.379V237.119ZM351.844 227.17V215.674L375.059 217.935V229.136L351.844 227.17ZM374.362 217.778L369.234 217.291V210.456L374.362 210.056V217.778ZM351.844 207.516V196.107L375.059 198.715V209.917L351.844 207.516ZM374.362 198.472L369.234 197.898V191.323L374.362 190.871V198.472ZM351.966 187.845V176.435L375.181 179.392V190.593L351.966 187.845ZM369.408 178.487V172L374.536 171.513V179.148L369.408 178.487ZM369.408 171.878V171.321L351.129 168.921V168.486H351.983L374.658 171.513L369.408 171.878ZM368.03 152.363L350.972 149.806V149.389L369.146 152.05V159.007L368.1 158.851V152.433L368.03 152.363ZM367.925 152.537V158.851H367.646V152.572L367.925 152.537ZM367.472 152.537V158.798L362.396 158.068V151.789L367.472 152.537ZM362.239 151.615V158.016H361.96V151.615H362.239ZM361.803 151.615V157.981H361.524V151.632L361.803 151.615ZM361.35 151.615V157.929L356.501 157.233V150.937L361.35 151.615ZM356.326 150.763V157.181H356.047V150.745L356.326 150.763ZM355.89 150.763V157.181H355.611V150.78L355.89 150.763ZM355.437 150.763V157.059L351.948 156.555L351.094 156.659V150.119L355.437 150.763ZM351.774 156.729V168.138H350.989V156.85L351.774 156.729ZM351.948 168.138V156.746L375.181 160.016V171.217L351.948 168.138ZM369.391 159.042V152.78L374.519 152.206V159.79L369.391 159.042ZM369.391 152.589V151.963L351.111 149.284V148.797H351.966L374.728 152.137L369.391 152.589ZM368.03 132.987L350.954 130.222V129.822L369.129 132.778V139.631L368.1 139.457V133.074C368.096 133.055 368.088 133.037 368.076 133.022C368.063 133.007 368.048 132.995 368.03 132.987ZM367.925 133.178V139.44H367.629V133.213L367.925 133.178ZM367.454 133.178V139.336L362.379 138.536V132.396L367.454 133.178ZM362.222 132.187V138.518H361.943V132.187H362.222ZM361.786 132.187V138.501H361.489V132.187H361.786ZM361.315 132.187V138.379L356.466 137.614V131.422L361.315 132.187ZM356.292 131.213V137.596H356.03V131.213H356.292ZM355.873 131.213V137.562H355.594V131.283L355.873 131.213ZM355.489 131.213L351.007 130.448L355.489 131.213ZM355.489 131.37V137.579L352.001 137.022H351.146V130.552L355.489 131.37ZM351.826 137.196V148.606H351.041V137.196H351.826ZM352.001 148.606V137.109L375.216 140.727V151.928L352.001 148.606ZM374.519 140.536L369.391 139.736V133.492L374.519 132.918V140.536ZM369.391 133.405V132.778L351.111 129.804V129.335L351.966 129.213L374.763 132.883L369.391 133.405ZM368.03 113.646L350.972 110.637V110.254L369.146 113.49V120.255L368.1 120.064V113.716L368.03 113.646ZM367.943 113.82V120.012H367.646V113.89L367.943 113.82ZM362.449 112.829L367.681 113.733L362.449 112.829ZM367.472 113.89V120.012L362.396 119.16V113.055L367.472 113.89ZM362.239 112.794V119.073H361.995V112.742L362.239 112.794ZM361.821 112.794V119.055H361.507V112.794H361.821ZM356.483 111.837L361.437 112.689L356.483 111.837ZM361.332 112.863V118.968L356.483 118.151V111.942L361.332 112.863ZM356.326 111.802V118.116H356.065V111.698L356.326 111.802ZM355.89 111.802V118.099H355.594V111.768L355.89 111.802ZM355.541 111.802L351.041 111.02L355.541 111.802ZM355.437 111.959V118.099L351.948 117.49L351.094 117.664V110.985L355.437 111.959ZM351.774 117.681V129.091L350.989 129.213V117.646L351.774 117.681ZM351.948 129.091V117.49L375.164 121.438V132.639L351.948 129.091ZM374.466 121.334L369.338 120.464V114.255L374.466 113.594V121.334ZM369.338 114.272V113.611L351.059 110.359V109.576L351.913 109.454L374.763 113.455L369.338 114.272ZM368.03 94.3224L350.972 91.0525V90.6699L369.146 94.1485V100.88L368.1 100.688V94.4094L368.03 94.3224ZM367.925 94.4964V100.619H367.664V94.5485L367.925 94.4964ZM367.489 94.4964V100.532L362.396 99.6099V93.5919L367.489 94.4964ZM362.396 93.3658L363.722 93.6093L362.396 93.3658ZM362.239 93.3658V99.5577H361.943V93.331L362.239 93.3658ZM361.786 93.3658V99.4882H361.489V93.4006L361.786 93.3658ZM356.466 92.3222L361.454 93.2788L356.466 92.3222ZM361.332 93.4354V99.436L356.466 98.5489V92.4614L361.332 93.4354ZM356.326 92.1831V98.4272H356.065V92.1831H356.326ZM355.908 92.1831V98.375H355.611V92.27L355.908 92.1831ZM355.611 92.0787L351.076 91.1917L355.611 92.0787ZM355.454 92.2527V98.288L351.966 97.6445L351.111 97.801V91.4178L355.454 92.2527ZM351.791 97.8184V109.228L351.007 109.35V97.9924L351.791 97.8184ZM351.966 109.228V97.8358L375.181 102.115V113.316L351.966 109.228ZM374.466 101.801L369.338 100.88V95.0007L374.466 94.305V101.801ZM369.338 94.8442V94.0789L351.076 90.6003V89.9916L351.931 89.8524L374.815 94.2181L369.338 94.8442ZM369.338 74.7031L351.059 70.9636V69.9722L374.693 74.79L369.338 75.5379V74.79L369.286 74.6857L369.338 74.7031ZM369.234 74.8596V81.469L368.187 81.2602V75.0857L351.129 71.6071V71.2419L369.234 74.8596ZM368.013 75.2075V81.2255H367.751V75.3118L368.013 75.2075ZM366.53 74.8596L367.664 75.1031L366.53 74.8596ZM367.577 75.2597V81.1385L362.483 80.1297V74.1813L367.577 75.2597ZM362.344 73.99V80.0079H362.082V73.9204L362.344 73.99ZM361.908 73.99V80.0079H361.611V73.9726L361.908 73.99ZM356.588 72.8768L361.542 73.903L356.588 72.8768ZM361.437 74.0421V79.9732L356.588 78.9991V73.0507L361.437 74.0421ZM356.431 72.8246V78.9644H356.152V72.7029L356.431 72.8246ZM355.978 72.8246V78.9296H355.698V72.7551L355.978 72.8246ZM355.646 72.7203L351.129 71.8158L355.646 72.7203ZM355.541 72.8768V78.8426L352.053 78.1295L351.198 78.3034V71.868L355.541 72.8768ZM351.791 78.2686V89.6611L351.007 89.7828V78.2686H351.791ZM351.966 89.6785V78.2686L375.181 82.8952V94.0963L351.966 89.6785ZM369.408 81.5559V75.8162L375.234 74.9814H375.373V74.7031L402.566 70.5809V81.469L375.356 85.3128V82.7561L369.408 81.5559ZM400.124 57.9884L410.589 60.3364V64.789L400.124 62.5105V57.9884ZM389.397 59.7277L399.949 57.9884V62.4584L399.461 62.354V61.1017C399.469 61.0885 399.473 61.0735 399.473 61.0582C399.473 61.043 399.469 61.028 399.461 61.0147L393.129 59.6581L389.641 60.1973H389.519L389.397 59.7277ZM399.304 61.2409V62.3888L393.147 61.0495V59.919L399.304 61.2409ZM392.972 59.9016V60.8756L389.972 60.2321L392.972 59.9016ZM386.903 24.1589H388.106V59.8842L386.903 59.6233V24.1589ZM374.239 57.0491L425.275 68.1459V75.1031L402.6 70.3026L375.321 74.4422V63.4846L374.292 63.2584L374.239 57.0491ZM374.065 57.0491V63.1019L357.914 59.6233L374.065 57.0491ZM375.164 63.5193V74.79L317.099 62.8236V51.1529L375.164 63.5193ZM339.163 313.423L317.012 312.849H316.698V304.935L337.977 305.526H339.163V313.423ZM341.448 313.649V325.128L317.029 324.676V313.075L341.448 313.649ZM284.308 68.3894H284.534H284.656H284.395H284.308ZM284.308 68.5807V319.632H284.046V68.4938L284.308 68.5807ZM283.592 52.44L289.157 51.4312V55.6577L284.447 56.4752V58.0579L283.662 58.1971L283.592 52.44ZM283.592 52.2834L289.296 51.2746L283.592 52.2834ZM314.36 64.8934L308.064 65.937L289.226 69.0155V75.4858L287.622 75.7467V68.7894L316.628 64.1107V71.0679L314.535 71.4158V64.963L314.36 64.8934ZM308.413 66.0413L314.273 65.0847L308.413 66.0413ZM314.221 65.2587V71.5375L308.5 72.4594V66.1979L314.221 65.2587ZM308.325 66.1805V72.4768H308.081V66.0935L308.325 66.1805ZM307.924 66.1805V72.6333H307.558V66.0935L307.924 66.1805ZM301.523 67.2588L307.471 66.2848L301.523 67.2588ZM307.401 66.4762V72.7203L301.575 73.6421V67.3458L307.401 66.4762ZM301.401 67.398V73.6769H301.157V67.2415L301.401 67.398ZM301 67.311V73.7465H300.651V67.2936L301 67.311ZM294.79 68.372H294.773L300.564 67.4154L294.79 68.372ZM300.477 67.5719V73.816L294.843 74.7205V68.459L300.477 67.5719ZM294.668 68.5285V74.7552H294.407V68.3546L294.668 68.5285ZM294.25 68.4242V74.79H293.883V68.3894L294.25 68.4242ZM289.61 69.2069L293.779 68.5285L289.61 69.2069ZM293.709 68.6851V74.79L289.662 75.4336V69.2764L293.709 68.6851ZM289.505 69.346V75.4858H289.244V69.1895L289.505 69.346ZM316.924 71.3114V82.9822L284.639 87.9218V76.5293L316.924 71.3114ZM336.634 68.5633L317.988 64.7716V71.3114L317.134 71.1375H316.837V64.1803L339.285 68.7373V75.5379L336.634 75.0161V68.6329V68.5633ZM330.808 67.5893L336.285 68.7199H336.163L330.808 67.5893ZM336.041 68.859V74.8944L330.808 73.8508V67.8328L336.041 68.859ZM336.198 68.859H336.495V75.0857H336.198V68.859ZM330.599 67.5371V73.8334H330.338V67.4502L330.599 67.5371ZM324.616 66.3544L329.849 67.4154H329.727L324.616 66.3544ZM329.727 67.5719V73.6595L324.616 72.6333V66.5109L329.727 67.5719ZM329.884 67.5719L330.163 67.485V73.7465H329.884V67.5719ZM324.425 66.2674V72.5811H324.111V66.1979L324.425 66.2674ZM318.006 65.0151L323.692 66.1631H323.587L318.006 65.0151ZM323.5 66.3022V72.4072L318.058 71.3114V65.1717L323.5 66.3022ZM323.675 66.3022H323.954V72.5811H323.675V66.3022ZM314.326 84.9302L289.209 88.7045V95.2617L287.587 95.5051V88.6001L316.593 84.2171V91.3482L314.483 91.6613V84.9824C314.472 84.9634 314.457 84.9472 314.439 84.9351C314.42 84.9231 314.4 84.9154 314.378 84.9128L314.326 84.9302ZM308.413 86.0086L314.238 85.1215L308.413 86.0086ZM314.186 85.2954V91.6961L308.465 92.5483V86.1477L314.186 85.2954ZM308.308 86.1477V92.5831H308.064V86.0607L308.308 86.1477ZM307.907 86.0607V92.6353H307.541V86.0955L307.907 86.0607ZM301.506 87.0695L307.453 86.1651L301.506 87.0695ZM307.384 86.3216V92.7049L301.558 93.5745V87.2261L307.384 86.3216ZM301.383 87.2261V93.6093H301.139V87.1217L301.383 87.2261ZM300.982 87.1217V93.6615H300.633V87.1739L300.982 87.1217ZM294.755 88.0957L300.477 87.2087L294.755 88.0957ZM300.459 87.3826V93.7311L294.825 94.5833V88.2349L300.459 87.3826ZM294.651 88.2349V94.6007H294.389V88.1653L294.651 88.2349ZM294.232 94.6703H293.883V88.2001H294.232V94.6703ZM293.709 88.4088V94.7399L289.662 95.3486V89.0175L293.709 88.4088ZM289.488 89.0349V95.366H289.261V88.9306L289.488 89.0349ZM316.872 91.47V103.141L284.587 107.698V96.2357L316.872 91.47ZM314.326 104.984L289.209 108.463V115.107L287.604 115.333V108.341L316.523 104.358V111.489L314.395 111.768V105.037C314.395 105.037 314.395 104.984 314.378 104.967L314.326 104.984ZM308.413 105.976L314.221 105.158L308.413 105.976ZM314.186 105.332V111.82L308.5 112.585V106.098L314.186 105.332ZM308.378 106.098V112.585H308.134V106.098H308.378ZM307.959 105.993V112.637H307.61V106.098L307.959 105.993ZM307.436 106.219V112.707L301.593 113.507V107.072L307.436 106.219ZM301.436 107.054V113.524H301.192V107.002L301.436 107.054ZM301.035 107.054V113.646H300.703V107.037L301.035 107.054ZM295.104 107.889L300.529 107.124L295.104 107.889ZM300.529 107.298V113.716L294.878 114.498V108.046L300.529 107.298ZM294.703 108.08V114.516H294.459V107.976L294.703 108.08ZM294.285 108.08V114.637H293.936V108.011L294.285 108.08ZM293.779 108.289V114.707L289.732 115.264V108.759L293.779 108.289ZM289.558 108.88V115.298H289.296V108.689L289.558 108.88ZM316.924 111.715V123.386L284.639 127.578V116.012L316.924 111.715ZM314.378 125.143L289.261 128.413C289.261 128.413 289.174 128.413 289.174 128.5V135.179L287.587 135.37V128.065L316.593 124.343V131.596L314.465 131.857V125.073C314.465 125.073 314.395 125.021 314.378 125.021V125.143ZM314.238 125.456V131.996L308.552 132.709V126.065L314.238 125.456ZM308.378 126.186V132.726H308.134V125.995L308.378 126.186ZM307.959 126.186V132.848H307.61V126.03L307.959 126.186ZM301.593 127.178L307.436 126.395V132.918L301.593 133.648V127.178ZM301.488 127.16V133.665H301.261V126.969L301.488 127.16ZM301.087 127.16V133.805H300.756V126.969L301.087 127.16ZM300.581 127.387V133.874L294.93 134.57V128.134L300.581 127.387ZM294.773 128.134V134.605H294.494V127.787L294.773 128.134ZM294.337 128.048V134.657H293.971V128.048H294.337ZM293.814 128.256V134.709L289.784 135.213V128.778L293.814 128.256ZM289.61 128.778V134.97H289.331V128.448L289.61 128.778ZM316.977 131.996V143.649L284.691 147.476V135.753L316.977 131.996ZM314.413 145.336L289.226 148.015V148.102V154.902L287.604 155.076V147.841L316.611 144.362V151.702L314.465 151.946V144.988C314.465 144.988 314.378 145.075 314.36 145.058L314.413 145.336ZM313.366 145.597L314.273 145.493L313.366 145.597ZM314.273 145.597V152.015L308.605 152.659V146.102L314.273 145.597ZM308.378 146.102V152.746H308.134V145.98L308.378 146.102ZM307.959 146.102V152.867H307.593V146.084L307.959 146.102ZM307.436 146.293V152.937L301.61 153.598V146.989L307.436 146.293ZM301.436 146.989V153.615H301.209V146.797L301.436 146.989ZM301.035 146.989V153.737H300.668V146.815L301.035 146.989ZM300.511 147.18V153.807L294.895 154.45V147.649L300.511 147.18ZM294.721 147.858V154.468H294.441V147.597L294.721 147.858ZM294.267 147.858V154.589H293.918V147.632L294.267 147.858ZM293.761 148.05V154.641L289.75 155.111V148.241L293.761 148.05ZM289.575 148.519V154.798H289.313V148.206L289.575 148.519ZM316.924 152.154V163.495L284.639 166.973V155.581L316.924 152.154ZM314.378 165.373L308.099 166.034L289.191 167.738V174.591L287.587 174.748V167.547L316.593 164.469V171.878L314.465 172.104V165.234C314.465 165.234 314.395 165.112 314.378 165.095V165.373ZM314.238 165.669V172.191L308.535 172.765V165.964L314.238 165.669ZM308.378 166.243V172.713H308.116V165.93L308.378 166.243ZM307.942 166.243V173.096H307.593V165.964L307.942 166.243ZM307.418 166.434V173.148L301.61 173.739V166.712L307.418 166.434ZM301.453 167.025V173.756H301.209V166.973L301.453 167.025ZM301.035 167.025V173.826H300.668V166.695L301.035 167.025ZM300.494 167.199V173.878L294.878 174.452V167.443L300.494 167.199ZM294.721 167.791V174.47H294.459V167.373L294.721 167.791ZM294.302 167.791V174.557H293.918V167.773L294.302 167.791ZM293.761 167.999V174.626L289.75 175.026V167.982L293.761 167.999ZM289.575 168.399V175.044H289.296V167.93L289.575 168.399ZM316.924 172.017V183.67L284.639 186.732V175.287L316.924 172.017ZM314.36 185.166L289.244 187.567V194.402L287.639 194.541V187.201L316.645 184.453V191.967L314.517 192.158V185.201C314.498 185.18 314.473 185.165 314.444 185.159C314.416 185.153 314.387 185.155 314.36 185.166ZM314.221 185.323V192.158L308.535 192.663V185.862L314.221 185.323ZM308.378 185.879V192.68H308.116V185.897L308.378 185.879ZM307.959 185.879V192.663H307.61V185.879H307.959ZM307.436 185.879V192.645L301.593 193.167V186.436L307.436 185.879ZM301.418 186.453V193.184H301.192V186.453H301.418ZM301.017 186.453V193.184H300.703V186.627L301.017 186.453ZM300.529 186.453V193.202L294.86 193.706V187.01L300.529 186.453ZM294.703 187.027V193.724H294.424V187.027H294.703ZM294.267 187.027V193.724H293.936V187.027H294.267ZM293.761 187.027V193.706L289.715 194.072V187.671L293.761 187.027ZM289.558 187.427V194.089H289.296V187.427H289.558ZM316.924 191.915V203.586L284.639 206.229V194.785L316.924 191.915ZM316.924 212.056V223.727L284.639 226.023V214.578L316.924 212.056ZM287.517 214.178V206.977L316.523 204.577V212.195L287.517 214.178ZM316.924 232.18V243.85L284.639 245.798V234.354L316.924 232.18ZM287.517 233.919V226.37L316.523 224.318V231.971L287.517 233.919ZM316.924 252.251V263.922L284.639 265.453V254.008L316.924 252.251ZM287.517 253.695V246.146L316.523 244.407V252.147L287.517 253.695ZM316.924 272.723V284.394L284.639 285.576V274.132L316.924 272.723ZM287.517 273.836V266.113L316.523 264.705V272.514L287.517 273.836ZM316.924 292.864V304.535L284.639 305.352V293.942L316.924 292.864ZM287.517 293.647V285.907L316.523 284.863V292.707L287.517 293.647ZM287.517 305.457H287.36L317.012 304.709L335.902 305.3L316.628 304.778L287.517 305.457ZM316.541 304.935V312.849L287.534 313.475V305.63L316.541 304.935ZM287.377 293.664H284.604V285.663L287.377 285.802V293.664ZM287.377 273.853L284.604 273.958V265.957L287.377 266.183V273.853ZM287.377 254.025L284.604 254.182V246.233L287.377 246.459V254.025ZM287.377 234.267L284.604 234.458V226.457L287.377 226.683V234.267ZM287.377 214.456L284.604 214.665V206.664L287.377 206.977V214.456ZM287.377 194.628L284.604 194.872V186.923L287.377 187.253V194.628ZM287.377 174.852L284.604 175.13V167.199L287.377 167.53V174.852ZM287.377 155.094L284.604 155.424V147.371L287.377 147.789V155.094ZM287.377 135.231L284.604 135.579V127.63L287.377 128.048V135.231ZM287.377 115.472L284.604 115.855V107.837L287.377 108.272V115.472ZM287.377 95.6791L284.604 96.0791V88.0609L287.377 88.5827V95.6791ZM287.377 75.8336L284.604 76.2858V68.5633L285.162 68.4416L287.377 68.8242V75.8336ZM284.604 305.526L287.377 305.63V313.475H284.604V305.526ZM284.604 313.701L316.924 313.075V324.728L284.639 325.198L284.604 313.701ZM317.064 304.535V292.864L341.483 293.855V305.317L317.064 304.535ZM339.111 293.595L316.977 292.69H316.663V284.846L337.942 285.82H339.111V293.595ZM337.942 285.663L316.611 284.689L287.465 285.733H286.366L316.977 284.62L339.495 285.663H337.942ZM317.012 284.394V272.723L341.431 274.062V285.524L317.012 284.394ZM339.059 273.766L316.924 272.566H316.611V264.774L337.89 266.079H339.041L339.059 273.766ZM337.89 265.905L316.541 264.6L287.43 266.027L285.842 265.905L316.942 264.426L339.878 265.818L337.89 265.905ZM316.959 264.252V252.599L341.378 254.338V265.818L316.959 264.252ZM339.128 253.938L317.012 252.408H316.698V244.668L338.012 246.303H339.111L339.128 253.938ZM338.012 246.146L316.645 244.511L287.534 246.251L285.79 246.111L317.064 244.216L340.367 245.955L338.012 246.146ZM317.081 244.094V232.423L341.5 234.458V245.92L317.081 244.094ZM323.518 232.632L318.058 232.145V225.379L323.518 225.901V232.632ZM323.692 232.632V225.883H323.989V232.632H323.692ZM324.163 232.632V225.883H324.46V232.615L324.163 232.632ZM324.616 232.632V226.109L329.727 226.579V233.31L324.616 232.632ZM329.849 233.119V226.388H330.128V233.102L329.849 233.119ZM330.303 233.119V226.405H330.564V233.119H330.303ZM330.739 233.119V226.405L335.971 226.91V233.589L330.739 233.119ZM336.163 233.606V226.927H336.634V233.623L336.163 233.606ZM339.076 233.919L336.634 233.728V226.875V226.788L317.988 225.049V232.006L321.773 232.354L317.029 231.954H316.715V224.318L337.995 226.231H339.163L339.076 233.919ZM337.907 226.196L316.593 224.283L287.447 226.336L285.581 226.179L316.977 223.953L340.454 226.023L337.907 226.196ZM316.977 223.796V212.125L336.634 214.195L341.466 214.665V226.109L316.977 223.796ZM317.954 211.934V205.168L323.396 205.742V212.491L317.954 211.934ZM323.57 212.508V205.76H323.884V212.508H323.57ZM324.041 212.508V205.76H324.337V212.508H324.041ZM324.512 212.508V205.76L329.622 206.316V213.03L324.512 212.508ZM329.744 213.047V206.629H330.024V213.343L329.744 213.047ZM330.198 213.047V206.334H330.494V213.03L330.198 213.047ZM330.651 213.047V206.351L335.884 206.908V213.587L330.651 213.047ZM336.041 206.925H336.373V213.604H336.076L336.041 206.925ZM338.989 213.882L336.529 213.639V206.873L317.988 205.238V212.195H317.081H316.767V204.612L338.012 206.803H339.216L338.989 213.882ZM337.768 206.212L316.471 204.02L287.36 206.421L285.267 206.194L316.855 203.603L340.437 206.021L337.768 206.212ZM317.099 203.846V192.176L341.518 194.872V206.334L317.099 203.846ZM318.076 192.123V185.323L323.535 185.949V192.715L318.076 192.123ZM323.692 192.732V185.966H324.006V192.732H323.692ZM324.18 192.732V186.105H324.46V192.871L324.18 192.732ZM324.634 192.732V186.105L329.744 186.697V193.445L324.634 192.732ZM329.867 193.324V186.575H330.146V193.324H329.867ZM330.32 193.324V186.575H330.582V193.324H330.32ZM330.756 193.324V186.575L335.989 187.166V193.898L330.756 193.324ZM336.181 193.915V187.201H336.495V193.915H336.181ZM339.094 194.245L336.652 193.967V187.149L318.006 185.01V191.967L317.116 191.863H316.802V184.366L338.064 186.906H339.233L339.094 194.245ZM337.907 186.679L316.645 184.366L287.534 187.114L285.354 186.853L317.029 183.862L340.716 186.697L337.907 186.679ZM316.977 183.479V172.017L341.396 175.148V186.61L316.977 183.479ZM323.413 165.86V172.469L317.954 171.756V165.338L323.413 165.86ZM318.076 165.234L320.675 165.582L318.076 165.234ZM323.692 172.748V166.069H324.006V172.8L323.692 172.748ZM324.18 172.748V165.999H324.46V172.765L324.18 172.748ZM324.634 172.748V166.225L329.744 166.886V173.461L324.634 172.748ZM329.867 173.426V166.973H330.163V173.669L329.867 173.426ZM330.338 173.426V166.834H330.617V173.583L330.338 173.426ZM330.774 173.426V166.973L336.006 167.669V174.226L330.774 173.426ZM336.198 174.122V167.721H336.634V174.365L336.198 174.122ZM339.128 174.504L336.686 174.191V167.617V167.53L318.041 164.99V171.948L317.134 171.843H316.82V164.469L338.117 167.286L339.268 167.164L339.128 174.504ZM337.96 166.938L316.611 164.121L287.5 167.199L285.302 166.938L316.994 163.46L340.803 166.591L337.96 166.938ZM317.099 163.495V151.841L341.518 155.32V166.799L317.099 163.495ZM323.5 146.102V152.537L318.058 151.772V145.371L323.5 146.102ZM321.494 145.632L323.622 145.945L321.494 145.632ZM323.675 152.589V146.102H324.006V152.676L323.675 152.589ZM324.163 152.589V146.102H324.46V152.693L324.163 152.589ZM324.634 152.589V146.293L329.727 147.041V153.476L324.634 152.589ZM329.867 153.32V147.041H330.198V153.598L329.867 153.32ZM330.355 153.32V146.971H330.634V153.563L330.355 153.32ZM336.024 147.719V154.102L330.791 153.372V147.197L336.024 147.719ZM333.146 147.371L336.093 147.789L333.146 147.371ZM336.146 154.328V147.893H336.442V154.415L336.146 154.328ZM339.094 154.728L336.617 154.381V147.841L317.988 145.197V151.893L317.116 151.772H316.82V144.362L338.099 147.476L339.268 147.336L339.094 154.728ZM337.925 147.302L316.576 144.188L287.43 147.58L285.127 147.249L316.959 143.493L340.855 146.971L337.925 147.302ZM316.994 143.336V131.717L341.413 135.44V146.902L316.994 143.336ZM323.43 126.117V132.535L317.971 131.7V125.23L323.43 126.117ZM317.971 125.056L323.57 125.943L317.971 125.056ZM323.605 132.5V126.152H323.919V132.674L323.605 132.5ZM324.076 132.587V126.082H324.372V132.622L324.076 132.587ZM329.64 127.091V133.422L324.529 132.657V126.326L329.64 127.091ZM324.529 126.1L329.762 126.934L324.529 126.1ZM329.762 133.457V127.143H330.076V133.631L329.762 133.457ZM330.233 133.457V127.074H330.512V133.579L330.233 133.457ZM335.919 128.048V134.448L330.686 133.648V127.317L335.919 128.048ZM330.686 127.021L336.059 127.874L330.686 127.021ZM336.093 134.344V128.169H336.407V134.605L336.093 134.344ZM339.006 134.796L336.564 134.431V127.978L317.936 124.986V131.665L317.064 131.544H316.767V124.343L338.03 127.821L339.181 127.682L339.006 134.796ZM337.838 127.474L316.506 123.995L287.36 127.734L285.04 127.404L317.012 123.491L340.925 127.334L337.838 127.474ZM316.907 123.143V111.594L341.326 115.698V127.178L316.907 123.143ZM323.361 106.08V112.394L317.884 111.472V105.245L323.361 106.08ZM317.884 104.95L323.43 105.941L317.884 104.95ZM323.518 112.429V106.184H323.814V112.655L323.518 112.429ZM323.989 112.429V106.098H324.285V112.585L323.989 112.429ZM329.657 107.298V113.559L324.564 112.707V106.393L329.657 107.298ZM324.773 106.254L329.779 107.141L324.773 106.254ZM329.832 113.594V107.298H330.128V113.716L329.832 113.594ZM330.303 113.594V107.158H330.582V113.594H330.303ZM330.739 113.681V107.437L335.971 108.376V114.62L330.739 113.681ZM336.146 114.585V108.376H336.46V114.794L336.146 114.585ZM339.094 115.072L336.634 114.794V108.254C336.642 108.241 336.646 108.226 336.646 108.211C336.646 108.196 336.642 108.181 336.634 108.167L318.023 104.88V111.489L317.134 111.333H316.837V104.358L338.082 108.098L339.268 107.959L339.094 115.072ZM337.89 107.767L316.576 104.028L287.447 108.098L285.127 107.837L317.012 103.332L340.96 107.541L337.89 107.767ZM316.959 103.054V91.4526L341.378 95.94V107.402L316.959 103.054ZM323.378 86.1825V92.4092L317.936 91.4004V85.2259L323.378 86.1825ZM317.936 84.9824L323.518 86.0259L317.936 84.9824ZM323.552 92.4266V86.2521H323.866V92.6353L323.552 92.4266ZM324.041 92.4266V86.1825H324.32V92.6005L324.041 92.4266ZM329.605 87.2087V93.3832L324.494 92.444V86.4608L329.605 87.2087ZM324.494 86.0781L329.727 87.0695H329.622L324.494 86.0781ZM329.727 93.418V87.4348L330.024 87.3478V93.6963L329.727 93.418ZM330.181 93.418V87.3478H330.46V93.7311L330.181 93.418ZM335.867 88.2001V94.3746L330.634 93.418V87.6087L335.867 88.2001ZM330.634 87.0521L336.006 88.0609L330.634 87.0521ZM336.041 94.4094V88.6001H336.338V94.9312L336.041 94.4094ZM338.954 94.9486L336.512 94.4964V88.4262C336.523 88.3982 336.523 88.3672 336.512 88.3392L330.181 87.1565L317.884 84.8606V91.3656L317.012 91.2091H316.715V84.2171L338.03 88.2523L339.146 88.1131L338.954 94.9486ZM337.82 87.6957L316.454 83.6431L287.325 88.0435L284.883 87.5913L316.837 82.7039L340.838 87.2782L337.82 87.6957ZM316.89 82.4778V71.3114L341.309 76.1467V87.6261L316.89 82.4778ZM316.454 63.5019L287.29 68.1981L284.866 67.7806L316.82 62.5627L341.884 67.7806L339.024 68.2155L316.454 63.5019ZM317.238 15.6537H318.076V32.4032L317.238 32.2119V15.6537ZM316.454 32.1597L340.123 37.6037V55.8664L317.029 50.9616L316.471 51.0659L316.454 32.1597ZM316.942 51.0833V62.7367L284.639 68.0763V56.5969L316.942 51.0833ZM311.709 0.156486H313.07V32.6467L311.709 32.8902V0.156486ZM316.331 32.1597V51.1007L290.168 55.5533V36.9776L316.331 32.1597ZM280.558 33.0293L290.552 35.2383V36.6645L290.029 36.7514V37.882L280.627 39.6213L280.558 33.0293ZM289.907 38.2646V55.6577H289.436V51.1355L283.296 52.2313V52.3182V58.5623L284.552 58.3362V62.841L279.825 63.6585V40.0039L289.907 38.2646ZM283.523 52.4748V58.3884H283.296V52.353L283.523 52.4748ZM251.743 347.861V43.9348L276.546 39.4648V207.464V347.861H251.743ZM279.651 347.861H276.825V185.097V39.4648L279.703 40.0387L279.651 347.861ZM276.65 39.2734L267.04 41.0127V35.5687L280.331 33.0467V39.7083L279.668 39.83L276.65 39.2734ZM287.36 347.861H279.755V63.815L284.482 62.9976V68.2155L284.046 68.3198V319.701C284.046 319.725 284.055 319.747 284.072 319.763C284.088 319.779 284.11 319.788 284.133 319.788H284.552V325.25H287.36V347.861ZM316.523 347.861H287.517V325.25L316.523 324.832V347.861ZM339.198 347.861H316.698V324.85H317.012L339.163 325.25L339.198 347.861ZM342.495 347.861H339.355V325.25H341.57V313.614H341.483H339.268V305.7H341.483V293.768L341.396 293.681H339.181V285.872L341.396 285.785V274.149L339.146 274.027V266.253L341.378 266.166V254.53V254.443L339.128 254.286V246.581L341.378 246.442V234.806V234.719L339.146 234.528V226.457L341.378 226.301V214.665L339.163 214.456V206.838L341.378 206.664V194.802L339.146 194.559V187.045L341.378 186.871V175.235L339.146 174.939V167.147L341.378 166.921V155.198L339.32 154.798V147.371L341.553 147.093V135.37L339.32 135.04V127.613L341.553 127.352V115.629L339.32 115.246V107.837L341.553 107.576V95.8704L339.32 95.4704V88.1653L341.553 87.8696V76.0597L339.32 75.6075V68.7025L342.46 68.2329L342.495 347.861ZM350.867 347.861H342.669V68.2329L350.867 69.9722V347.861ZM369.216 347.861H351.007V325.476H351.861L369.181 325.772L369.216 347.861ZM374.536 347.861H369.303V325.772H374.536V347.861ZM378.565 347.861H374.658V325.859H375.321V314.484C375.329 314.47 375.333 314.455 375.333 314.44C375.333 314.425 375.329 314.41 375.321 314.397H374.71V306.639H375.321V295.264H374.71V287.542H375.321V276.184V276.097H374.693V268.409H375.321V257.034C375.321 257.034 375.321 257.034 375.321 256.947H374.693V248.72H375.321V237.345H374.676V229.64H375.321V218.265H374.693V210.612H375.321V199.255H374.693V191.619H375.321V180.261H374.693V171.495H375.321V160.016L374.693 159.929V152.172H375.321V140.657C375.332 140.629 375.332 140.599 375.321 140.571H374.676V132.9H375.303V121.369L374.658 121.264V113.577H375.286V102.045L374.641 101.923V94.2876L375.269 94.2007V85.852L377.013 86.2694L401.746 82.6343V89.2958L400.473 89.4872V83.1909L380.03 86.1303C380.02 86.1583 380.02 86.1893 380.03 86.2173V92.4092L375.617 93.0353V93.1223V104.045H375.722L378.391 104.532L401.92 101.367V108.046L400.647 108.219V101.958L387.147 103.697L380.17 104.619C380.159 104.647 380.159 104.678 380.17 104.706V110.933L375.757 111.507V122.43L378.426 122.934L401.92 120.012V126.795L400.647 126.952V120.69L393.949 121.525L380.205 123.264V129.561L375.792 130.1V141.058L378.443 141.51L401.973 138.796V145.649L400.699 145.788V139.457L380.257 141.753V148.136L375.844 148.623V159.546L378.495 159.946L402.007 157.477V164.434L400.752 164.556V158.277L380.327 160.399H380.24V166.799L375.827 167.251V178.174L378.478 178.505L401.99 176.261V183.218L400.734 183.34V176.818L380.309 178.731H380.222V185.184L375.809 185.584V196.507H375.949L378.6 196.837L402.112 194.872V201.829L400.839 201.933V195.428L380.414 197.167H380.327V203.603L390.618 202.803L375.827 204.003V214.926H375.931L378.565 215.187L402.095 213.447V220.561L375.792 222.3C375.781 222.328 375.781 222.359 375.792 222.387V233.31H375.914L378.53 233.571L402.077 232.11V239.241L375.792 240.807H375.705V251.712H375.896L378.495 251.956L402.042 250.668V257.904L375.757 259.191L375.67 259.278V270.201H375.844L378.408 270.392L401.955 269.436V276.671L375.67 277.697H375.583V288.62H375.914L378.391 288.724L401.938 287.977V295.334L375.652 296.082C375.652 296.082 375.565 296.082 375.565 296.169V307.092H375.984L378.373 307.178L401.92 306.674V314.031L375.635 314.571L375.548 314.658V325.58H378.443L378.565 347.861ZM387.286 197.028V203.255H387.216V196.976L387.286 197.028ZM386.903 197.028V203.342H386.571V197.046L386.903 197.028ZM386.397 197.185V203.377L380.519 203.829V197.689L386.397 197.185ZM380.344 197.672V203.846H380.24V197.602L380.344 197.672ZM401.92 347.861H378.687V326.78L401.92 326.433V347.861ZM424.892 347.861H402.095V326.433H402.6L424.892 326.867V347.861ZM428.624 347.861H425.049V326.85H428.101V316.014H428.014L424.909 315.927V308.657L427.961 308.535V297.682H427.874L424.77 297.543V290.325L427.822 290.185V279.35H427.735L424.63 279.176V272.079L427.682 271.923V261.087L427.595 261L424.49 260.791V253.73L427.543 253.521V242.685L427.456 242.598L424.351 242.337V235.38L427.403 235.171V224.335L427.316 224.248L424.211 223.935V216.978L427.264 216.752V205.916H427.177L424.072 205.568V198.715L427.124 198.489V187.636L424.002 187.253V180.435L427.107 180.157V168.138L423.985 167.686V160.92L427.089 160.625V149.667L423.95 149.18V142.501L427.089 142.136V131.178L423.967 130.656V124.065L427.089 123.699V112.742L423.967 112.15V105.611L427.089 105.193V94.2355L423.967 93.6267V87.1391L427.089 86.7043V78.0077H427.438L428.624 347.861ZM431.345 347.861H428.799V78.0599L431.345 77.7121V347.861ZM450.95 347.861H431.52V77.7121L450.95 81.7473V347.861ZM470.782 132.309C470.666 132.326 470.549 132.326 470.433 132.309H470.137C469.591 132.121 469.123 131.758 468.807 131.276C468.491 130.794 468.345 130.221 468.392 129.648C468.362 128.923 468.577 128.209 469.005 127.621C469.432 127.034 470.046 126.608 470.747 126.413H471.323C471.866 126.587 472.334 126.94 472.651 127.414C472.967 127.888 473.114 128.454 473.067 129.022C473.12 129.747 472.923 130.47 472.507 131.068C472.091 131.666 471.482 132.104 470.782 132.309ZM471.009 132.431C471.7 132.182 472.295 131.721 472.708 131.116C473.122 130.51 473.333 129.789 473.311 129.056C473.325 128.58 473.224 128.108 473.018 127.678C472.812 127.249 472.506 126.874 472.125 126.587C472.606 126.808 473.009 127.169 473.283 127.621C473.557 128.074 473.688 128.598 473.66 129.126C473.698 129.859 473.483 130.583 473.052 131.178C472.62 131.773 471.998 132.202 471.288 132.396L471.009 132.431ZM471.549 132.431V138.814H471.218V132.57H471.323L471.549 132.431ZM464.293 133.039C464.314 133.528 464.173 134.011 463.893 134.413C463.612 134.815 463.208 135.114 462.741 135.266C463.163 135.056 463.516 134.73 463.757 134.326C463.998 133.922 464.118 133.457 464.102 132.987C464.108 132.687 464.053 132.388 463.939 132.11C463.825 131.831 463.655 131.579 463.439 131.37C463.726 131.555 463.958 131.814 464.108 132.121C464.259 132.427 464.323 132.769 464.293 133.109V133.039ZM463.02 135.353V139.736H462.741V135.509L463.02 135.353ZM462.218 129.317C462.073 129.334 461.927 129.334 461.782 129.317H461.607H461.398C460.697 129.064 460.1 128.584 459.705 127.954C459.31 127.323 459.138 126.578 459.218 125.839C459.187 124.921 459.466 124.019 460.01 123.278C460.554 122.537 461.331 122 462.218 121.751H462.532H462.724H462.95C463.655 121.976 464.262 122.432 464.673 123.045C465.085 123.657 465.277 124.391 465.218 125.125C465.263 126.059 464.992 126.98 464.447 127.74C463.903 128.501 463.118 129.056 462.218 129.317ZM462.357 129.456C463.279 129.175 464.081 128.594 464.634 127.806C465.187 127.018 465.46 126.068 465.41 125.108C465.439 124.471 465.303 123.838 465.016 123.268C464.729 122.699 464.3 122.212 463.77 121.856C464.433 122.122 464.993 122.593 465.367 123.201C465.741 123.808 465.909 124.52 465.846 125.23C465.9 126.17 465.631 127.1 465.082 127.865C464.533 128.631 463.738 129.186 462.828 129.439C462.656 129.471 462.479 129.477 462.305 129.456H462.357ZM463.073 129.456V131.057H462.811V129.561H462.933L463.073 129.456ZM462.375 135.231H461.939C461.569 135.1 461.254 134.849 461.045 134.517C460.836 134.186 460.745 133.794 460.788 133.405C460.765 132.905 460.914 132.413 461.209 132.009C461.503 131.604 461.927 131.312 462.41 131.178H462.793C463.154 131.299 463.466 131.535 463.68 131.849C463.894 132.163 463.999 132.538 463.98 132.918C464.038 133.447 463.902 133.98 463.598 134.418C463.293 134.856 462.84 135.169 462.323 135.3L462.375 135.231ZM453.654 347.774H451.16V160.573L453.654 160.973V347.774ZM479.416 347.774H453.776V287.907L479.363 287.09L479.416 347.774ZM479.416 286.898L453.828 287.716V239.015L479.416 237.502V286.898ZM479.416 237.276L453.828 238.772V189.949L479.363 187.845L479.416 237.276ZM479.416 187.584L453.828 189.775V160.903C453.839 160.875 453.839 160.844 453.828 160.816L451.229 160.399V141.266L479.486 138.17L479.416 187.584ZM500.346 347.826H479.521V320.936L500.242 321.423L500.346 347.826ZM500.346 321.232L479.625 320.745V293.386L500.346 294.342V321.232ZM500.346 294.151L479.625 293.194V265.818L500.346 267.227V294.151ZM500.346 267.035L479.625 265.626V238.285L500.346 240.146V267.035ZM500.346 239.954L479.625 238.093V210.717L500.346 213.047V239.954ZM500.346 212.856L479.625 210.525V183.166L500.346 185.949V212.856ZM500.346 185.775L479.625 182.992V155.633L500.346 158.868V185.775ZM504.602 347.861H500.399V321.423L504.602 321.528V347.861ZM504.602 321.371L500.399 321.267V294.342L504.602 294.534V321.371ZM504.602 294.377L500.399 294.186V267.227L504.602 267.522V294.377ZM504.602 267.366L500.399 267.087V240.163L504.602 240.546V267.366ZM504.602 240.389L500.399 240.007V213.065L504.602 213.534V240.389ZM504.602 213.378L500.399 212.908V185.984L504.602 186.54V213.378ZM504.602 186.384L500.399 185.827V158.885L504.602 159.546V186.384ZM524.556 347.861H504.777V321.528L524.556 321.98V347.861ZM524.556 321.771L504.777 321.302V294.551L524.556 295.456V321.771ZM524.556 295.229L504.777 294.325V267.54L524.556 268.879V295.229ZM524.556 268.653L504.777 267.314V240.563L524.556 242.302V268.653ZM524.556 242.111L504.777 240.372V213.552L524.556 215.778V242.111ZM524.556 215.552L504.777 213.326V186.558L524.556 189.219V215.552ZM524.556 188.993L504.777 186.349V159.581L524.556 162.66V188.993ZM524.556 162.451L479.521 155.407V138.205L524.556 145.858V162.451ZM548.975 347.791H524.713V230.771L548.993 229.275L548.975 347.791ZM595.598 347.791H549.167V229.275L595.616 234.093L595.598 347.791Z" fill="#A56037"/>
</svg>
